<svg width="80" height="80" viewBox="0 0 80 80" fill="none" xmlns="http://www.w3.org/2000/svg">
<circle cx="40" cy="40" r="39" stroke="white" stroke-width="2"/>
<g clip-path="url(#clip0)">
<path d="M63.7119 41.4276L53.2822 51.8573L51.8293 48.1353C51.6204 47.5986 51.3067 47.1209 50.8968 46.711C49.2705 45.0847 46.624 45.0846 44.9977 46.711C43.3711 48.3375 43.3715 50.9837 44.9978 52.61C45.4077 53.0199 45.887 53.3345 46.4212 53.5434L50.1407 54.9978L39.7137 65.4248L15.7162 41.4274L25.2525 31.8911C25.2438 31.8458 25.2248 31.8057 25.2014 31.7824C25.1978 31.7788 25.1938 31.7748 25.1896 31.7719C25.0235 31.7853 24.8915 31.7952 24.7039 31.7971C23.2899 31.7765 21.9823 31.2252 21.0002 30.2432C18.9242 28.1672 18.9245 24.7886 21.0004 22.7127C23.0764 20.6368 26.4547 20.6367 28.5307 22.7127C29.514 23.696 30.0655 25.0032 30.0839 26.3948L30.0571 26.8395C30.0686 26.8684 30.0803 26.886 30.0878 26.8935C30.1148 26.9205 30.1531 26.9378 30.1955 26.9459L39.7128 17.4285L49.2411 26.9567C49.282 26.9446 49.327 26.9223 49.3601 26.8892C49.3565 26.7715 49.3439 26.6182 49.3433 26.4144C49.3646 25.0012 49.9165 23.6929 50.8964 22.713C52.9717 20.6377 56.351 20.6379 58.4264 22.7133C60.503 24.7899 60.5023 28.1681 58.4269 30.2435C57.4457 31.2247 56.1375 31.7766 54.7421 31.7964L54.3068 31.7771C54.2623 31.8096 54.2227 31.8698 54.2058 31.9214L63.7119 41.4276ZM53.9355 48.7416L61.2494 41.4277L52.8192 32.9975C52.6725 32.8508 52.5667 32.667 52.5161 32.4686C52.2468 31.4561 52.9526 30.2693 54.012 30.0469L54.238 30.0301L54.7196 30.0559C55.6569 30.0422 56.5371 29.6717 57.1959 29.0129C58.5932 27.6157 58.5925 25.3425 57.1959 23.9459C55.7987 22.5486 53.5244 22.548 52.1277 23.9447C51.4693 24.6031 51.0984 25.4838 51.0846 26.4234C51.0851 26.5335 51.0953 26.6291 51.105 26.7239C51.1249 26.9003 51.1201 27.1044 51.0918 27.2494C50.7546 28.4343 49.6646 28.9027 48.6901 28.6449C48.4875 28.5901 48.309 28.4873 48.1646 28.3429L39.7139 19.8922L31.2843 28.3218C31.1404 28.4657 30.96 28.5698 30.7643 28.6229C30.0783 28.8062 29.3481 28.6154 28.8582 28.1254C28.596 27.8633 28.4148 27.5185 28.3339 27.1268L28.3158 26.7691L28.3428 26.4601C28.3189 25.4585 27.95 24.5961 27.2986 23.9447C25.901 22.5471 23.6285 22.5471 22.2309 23.9447C20.8334 25.3422 20.8332 27.615 22.2307 29.0125C22.8902 29.672 23.7698 30.0419 24.7077 30.0562C24.8171 30.055 24.904 30.0468 24.9879 30.0369C25.1766 30.0164 25.3886 30.0217 25.5335 30.0499C25.9276 30.162 26.2084 30.328 26.4314 30.551C26.9195 31.0391 27.1111 31.7663 26.9303 32.4489C26.8775 32.6497 26.7728 32.8318 26.6276 32.977L18.178 41.4266L39.7129 62.9615L47.026 55.6484L45.7867 55.1636C45.0273 54.866 44.3476 54.4214 43.7669 53.8407C41.4618 51.5356 41.4612 47.7848 43.7669 45.4791C46.0722 43.1738 49.8234 43.1741 52.1284 45.4791C52.7097 46.0605 53.1548 46.7398 53.4516 47.5009L53.9355 48.7416Z" fill="white"/>
</g>
<defs>
<clipPath id="clip0">
<path d="M9 34.7132L39.7132 4L70.4264 34.7132L39.7132 65.4264L9 34.7132Z" fill="white"/>
</clipPath>
</defs>
</svg>
