<svg width="330" height="330" viewBox="0 0 330 330" fill="none" xmlns="http://www.w3.org/2000/svg">
<line x1="283.5" y1="1" x2="283.5" y2="329" stroke="#39FF14"/>
<line x1="236.5" y1="1" x2="236.5" y2="329" stroke="#39FF14"/>
<line x1="189.5" y1="1" x2="189.5" y2="329" stroke="#39FF14"/>
<line x1="141.5" y1="1" x2="141.5" y2="329" stroke="#39FF14"/>
<line x1="94.5" y1="1" x2="94.5" y2="329" stroke="#39FF14"/>
<line x1="47.5" y1="1" x2="47.5" y2="329" stroke="#39FF14"/>
<line x1="1" y1="283.5" x2="329" y2="283.5" stroke="#39FF14"/>
<line x1="1" y1="236.5" x2="329" y2="236.5" stroke="#39FF14"/>
<line x1="1" y1="189.5" x2="329" y2="189.5" stroke="#39FF14"/>
<line x1="1" y1="141.5" x2="329" y2="141.5" stroke="#39FF14"/>
<line x1="1" y1="94.5" x2="329" y2="94.5" stroke="#39FF14"/>
<line x1="1" y1="47.5" x2="329" y2="47.5" stroke="#39FF14"/>
<line x1="0.5" x2="0.5" y2="330" stroke="#39FF14"/>
<line x1="1" y1="329.5" x2="329" y2="329.5" stroke="#39FF14"/>
<line x1="329.5" x2="329.5" y2="330" stroke="#39FF14"/>
<line x1="1" y1="0.5" x2="329" y2="0.5" stroke="#39FF14"/>
</svg>
