<svg width="330" height="330" viewBox="0 0 330 330" fill="none" xmlns="http://www.w3.org/2000/svg">
<line x1="289.5" y1="1" x2="289.5" y2="329" stroke="#39FF14"/>
<line x1="248.5" y1="1" x2="248.5" y2="329" stroke="#39FF14"/>
<line x1="206.5" y1="1" x2="206.5" y2="329" stroke="#39FF14"/>
<line x1="165.5" y1="1" x2="165.5" y2="329" stroke="#39FF14"/>
<line x1="124.5" y1="1" x2="124.5" y2="329" stroke="#39FF14"/>
<line x1="83.5" y1="1" x2="83.5" y2="329" stroke="#39FF14"/>
<line x1="41.5" y1="1" x2="41.5" y2="329" stroke="#39FF14"/>
<line x1="1" y1="289.5" x2="329" y2="289.5" stroke="#39FF14"/>
<line x1="1" y1="248.5" x2="329" y2="248.5" stroke="#39FF14"/>
<line x1="1" y1="206.5" x2="329" y2="206.5" stroke="#39FF14"/>
<line x1="1" y1="165.5" x2="329" y2="165.5" stroke="#39FF14"/>
<line x1="1" y1="124.5" x2="329" y2="124.5" stroke="#39FF14"/>
<line x1="1" y1="83.5" x2="329" y2="83.5" stroke="#39FF14"/>
<line y1="41.5" x2="328" y2="41.5" stroke="#39FF14"/>
<line x1="0.5" x2="0.5" y2="330" stroke="#39FF14"/>
<line x1="1" y1="329.5" x2="329" y2="329.5" stroke="#39FF14"/>
<line x1="329.5" x2="329.5" y2="330" stroke="#39FF14"/>
<line x1="1" y1="0.5" x2="329" y2="0.5" stroke="#39FF14"/>
</svg>
