<svg width="30" height="30" viewBox="0 0 30 30" fill="none" xmlns="http://www.w3.org/2000/svg">
<path d="M21.5362 0C18.9824 0 16.5917 1.21137 15 3.24101C13.4083 1.2113 11.0177 0 8.46382 0C3.79688 0 0 3.9777 0 8.86705C0 12.6956 2.17912 17.124 6.4767 22.0291C9.78402 25.8038 13.3818 28.7265 14.4057 29.5324L14.9998 30L15.5939 29.5325C16.6178 28.7266 20.2157 25.804 23.5231 22.0292C27.8208 17.1241 30 12.6957 30 8.86705C30 3.9777 26.2031 0 21.5362 0ZM22.0659 20.6278C19.3455 23.7326 16.4188 26.2424 14.9998 27.3992C13.5809 26.2424 10.6543 23.7325 7.93391 20.6277C4.03754 16.1806 1.97802 12.1138 1.97802 8.86705C1.97802 5.12041 4.88756 2.07226 8.46382 2.07226C10.8173 2.07226 12.9903 3.41605 14.135 5.57928L15 7.21401L15.865 5.57928C17.0096 3.41612 19.1827 2.07226 21.5362 2.07226C25.1124 2.07226 28.022 5.12034 28.022 8.86705C28.022 12.1139 25.9624 16.1807 22.0659 20.6278Z" fill="#FB28C0"/>
</svg>
