<svg width="30" height="30" viewBox="0 0 30 30" fill="none" xmlns="http://www.w3.org/2000/svg">
<g clip-path="url(#clip0)">
<path d="M21.5362 0.682144C18.9824 0.682144 16.5917 1.83843 15 3.77577C13.4083 1.83836 11.0177 0.682144 8.46382 0.682144C3.79688 0.682144 0 4.47896 0 9.14597C0 12.8004 2.17912 17.0274 6.4767 21.7094C9.78402 25.3125 13.3818 28.1023 14.4057 28.8716L14.9998 29.3179L15.5939 28.8717C16.6178 28.1024 20.2157 25.3127 23.5231 21.7096C27.8208 17.0275 30 12.8005 30 9.14597C30 4.47896 26.2031 0.682144 21.5362 0.682144ZM22.0659 20.3719C19.3455 23.3355 16.4188 25.7312 14.9998 26.8354C13.5809 25.7312 10.6543 23.3354 7.93391 20.3718C4.03754 16.1269 1.97802 12.2451 1.97802 9.14597C1.97802 5.56971 4.88756 2.66017 8.46382 2.66017C10.8173 2.66017 12.9903 3.94285 14.135 6.0077L15 7.5681L15.865 6.0077C17.0096 3.94291 19.1827 2.66017 21.5362 2.66017C25.1124 2.66017 28.022 5.56964 28.022 9.14597C28.022 12.2452 25.9624 16.1271 22.0659 20.3719Z" fill="#FB28C0"/>
<path d="M18.7236 12.8842C18.7236 13.7769 18.5178 14.656 18.1241 15.4439C17.7305 16.2319 17.1612 16.9046 16.4663 17.4029L13.6148 12.8842H18.7236Z" fill="#FB28C0"/>
<path d="M17.375 9.7463C17.375 10.0566 17.258 10.3622 17.0342 10.6361C16.8104 10.91 16.4867 11.1439 16.0917 11.3171L14.4705 9.7463H17.375Z" fill="#FB28C0"/>
<path d="M14.3011 26.2475C11.4535 23.9545 8.64507 21.2436 6.67832 18.8893C3.95725 15.6321 2.34987 12.547 2.05739 10.0202C1.98272 9.37509 2.01755 8.39076 2.13416 7.85025C2.52122 6.05628 3.62583 4.51548 5.19809 3.57647C5.79835 3.21797 6.59153 2.92615 7.34329 2.78722C7.89573 2.68513 8.9667 2.68378 9.54394 2.78444C11.1754 3.06894 12.6593 3.9805 13.6395 5.30039C13.7984 5.51434 14.1598 6.10594 14.4426 6.61505C14.7253 7.12417 14.9765 7.54072 15.0008 7.54072C15.025 7.54072 15.2762 7.12417 15.559 6.61505C16.1541 5.54347 16.4948 5.06459 17.0474 4.5224C18.9403 2.66526 21.7788 2.17991 24.2589 3.28936C25.153 3.68935 26.2662 4.6287 26.8425 5.46953C27.2434 6.05427 27.6119 6.86386 27.7976 7.56758C27.9497 8.14394 27.9591 8.23392 27.961 9.13848C27.9629 9.98621 27.947 10.1735 27.8248 10.7463C27.4387 12.5563 26.6337 14.2883 25.1732 16.4516C23.4319 19.0308 20.5939 22.0781 17.2817 24.9251C16.2919 25.776 15.0565 26.7735 14.9957 26.771C14.97 26.7699 14.6574 26.5344 14.3011 26.2475Z" fill="#FB28C0"/>
<path d="M14.3006 26.2487C10.7091 23.3623 7.35528 19.9629 5.28746 17.1131C2.41693 13.157 1.43413 9.79962 2.34893 7.0745C2.66665 6.128 3.34368 5.0853 4.0747 4.41662C5.32243 3.27528 6.78052 2.7071 8.46174 2.7071C10.2113 2.7071 11.7753 3.34993 13.0046 4.57428C13.5604 5.12784 13.8052 5.47263 14.4042 6.54518C14.6671 7.01587 14.9109 7.43132 14.9459 7.46841C15.0309 7.55834 15.0251 7.56656 15.5954 6.54518C16.3588 5.17779 16.9417 4.48464 17.8684 3.84199C18.9596 3.08522 20.1829 2.7071 21.5398 2.7071C23.6791 2.7071 25.5688 3.68325 26.811 5.43007C27.5244 6.43318 27.9199 7.59303 27.9783 8.85322C28.1576 12.7205 24.9295 17.9339 18.9412 23.4483C17.4895 24.7852 15.1253 26.7759 14.9946 26.7714C14.9695 26.7705 14.6571 26.5353 14.3006 26.2487Z" fill="#FB28C0"/>
<path d="M14.3265 26.272C12.1386 24.5165 9.61987 22.1731 7.92431 20.3156C3.11898 15.0513 1.19259 10.5229 2.32303 7.14882C3.08553 4.87291 5.02369 3.18759 7.34385 2.78298C7.92095 2.68235 9.03873 2.68516 9.58416 2.78862C10.9009 3.03841 12.0536 3.63453 12.9749 4.54213C13.5452 5.10402 13.7463 5.3845 14.3973 6.52686C14.7007 7.0591 14.9722 7.49439 15.0008 7.49416C15.0293 7.49396 15.3001 7.05939 15.6026 6.5285C15.9051 5.99762 16.2457 5.43993 16.3596 5.2892C17.1963 4.18112 18.3583 3.3634 19.6598 2.9667C20.8447 2.60555 22.3515 2.61687 23.5118 2.99564C25.1388 3.52675 26.4845 4.6701 27.2649 6.18435C27.7238 7.075 27.932 7.85364 27.9783 8.85322C28.1232 11.9802 26.1006 15.9113 22.0807 20.3156C21.1981 21.2826 19.2508 23.195 18.1905 24.1362C16.7693 25.3977 15.1 26.774 14.9933 26.7722C14.9689 26.7718 14.6688 26.5467 14.3265 26.272Z" fill="#FB28C0"/>
<path d="M14.1943 26.1667C11.1615 23.7136 8.16581 20.7728 6.22658 18.3447C3.97742 15.5285 2.6221 12.9859 2.16098 10.7174C2.00975 9.97341 1.97397 8.79068 2.08268 8.1293C2.43576 5.98123 3.89388 4.0961 5.87399 3.22769C6.69148 2.86917 7.24047 2.75125 8.23226 2.72117C8.89942 2.70093 9.19093 2.71433 9.55484 2.78199C10.7034 2.99551 11.5364 3.36942 12.4669 4.08911C13.2488 4.69381 13.6818 5.24738 14.4838 6.66749C14.7357 7.11369 14.9684 7.47876 15.0008 7.47876C15.0331 7.47876 15.2658 7.11369 15.5178 6.66749C16.1823 5.49075 16.4398 5.12595 16.9953 4.57426C17.9596 3.6166 19.0747 3.03351 20.4135 2.78694C20.9679 2.68484 22.0876 2.68355 22.6656 2.78436C25.7168 3.31644 27.991 6.02953 27.9929 9.13983C27.9948 12.2113 26.0043 15.9941 22.1533 20.2378C21.3246 21.1509 19.2521 23.1984 18.2943 24.0502C16.935 25.259 15.1034 26.7729 15.0002 26.7729C14.9692 26.7729 14.6066 26.5001 14.1943 26.1667Z" fill="#FB28C0"/>
<path d="M14.1953 26.1681C11.0182 23.6076 7.88529 20.4977 5.88756 17.9213C3.8184 15.2529 2.53807 12.7455 2.13115 10.5648C2.01201 9.92632 1.99748 8.40511 2.10589 7.91963C2.70492 5.23698 4.73543 3.23787 7.31875 2.78738C7.90136 2.68578 9.01774 2.68362 9.58754 2.78298C10.7834 2.99153 11.9188 3.55869 12.8554 4.41542C13.3692 4.88544 13.7625 5.41086 14.2976 6.34206C14.9384 7.4573 14.9716 7.50474 15.0535 7.42018C15.0913 7.38108 15.3369 6.97566 15.5993 6.51924C16.2257 5.42937 16.4589 5.10394 16.9935 4.5735C17.9491 3.62533 19.1168 3.01253 20.4059 2.78272C20.9527 2.68525 22.1109 2.68762 22.683 2.78738C23.9849 3.01441 25.1312 3.62149 26.1002 4.59716C26.8552 5.3574 27.342 6.14404 27.6781 7.14745C28.7593 10.3746 27.0389 14.6652 22.6477 19.6932C21.4021 21.1195 19.0576 23.4102 17.255 24.9623C16.3121 25.7741 15.068 26.7729 15.0002 26.7729C14.9699 26.7729 14.608 26.5008 14.1953 26.1681Z" fill="#FB28C0"/>
<path d="M14.3509 26.2974C11.2395 23.8101 8.0351 20.6499 5.98637 18.0482C3.9076 15.4083 2.57376 12.8358 2.12985 10.6103C2.01331 10.026 1.99909 8.39229 2.10589 7.91963C2.71405 5.22806 4.7349 3.23796 7.31875 2.78738C7.90136 2.68578 9.01774 2.68362 9.58754 2.78298C10.7807 2.99105 11.919 3.5589 12.8499 4.41044C13.3862 4.90104 13.7279 5.36324 14.3894 6.49331C14.6983 7.02105 14.9738 7.45284 15.0016 7.45284C15.0294 7.45284 15.2472 7.11441 15.4856 6.70078C16.1592 5.53188 16.4611 5.10655 16.9955 4.57301C18.2497 3.32111 19.7438 2.7071 21.536 2.7071C23.0162 2.7071 24.2599 3.11586 25.4132 3.98146C26.6095 4.87925 27.4142 6.09628 27.8258 7.62995C27.9471 8.08179 27.9592 8.21926 27.961 9.13848C27.9633 10.2474 27.8973 10.6924 27.5717 11.7577C26.9189 13.8932 25.4082 16.4235 23.252 18.993C21.5111 21.0675 18.6383 23.8564 16.116 25.9205C15.2772 26.6069 15.0587 26.7729 14.9943 26.7729C14.9676 26.7729 14.678 26.559 14.3509 26.2974Z" fill="#FB28C0"/>
<path d="M14.251 26.8134C11.227 24.4652 7.87937 21.3363 5.77029 18.887C3.06615 15.7465 1.37739 12.7888 0.790874 10.1658C0.67944 9.66743 0.66032 9.41646 0.661186 8.46345C0.662116 7.43942 0.674727 7.30071 0.811521 6.80994C1.19414 5.4372 1.8651 4.3193 2.84675 3.41896C4.24963 2.13228 5.88318 1.50513 7.83173 1.50513C9.81472 1.50513 11.4787 2.15917 12.8692 3.48509C13.4829 4.07025 13.7937 4.48415 14.4591 5.60227C14.7221 6.0442 14.9815 6.46239 15.0356 6.53158L15.1338 6.65739L15.2375 6.5047C15.2944 6.42072 15.5619 5.98454 15.8319 5.53541C16.4995 4.42453 16.7618 4.07765 17.3822 3.48509C18.7722 2.15733 20.4313 1.50513 22.4188 1.50513C23.9581 1.50513 25.1562 1.84932 26.4164 2.65353C27.9119 3.608 28.9464 5.03112 29.4376 6.80994C29.5694 7.28747 29.5861 7.45794 29.591 8.37962C29.5952 9.17 29.5711 9.54525 29.4885 9.97249C28.9189 12.9197 26.8457 16.3641 23.3944 20.0972C22.4313 21.139 19.8797 23.5854 18.6852 24.6122C17.1755 25.91 15.2444 27.4381 15.114 27.4381C15.0818 27.4381 14.6935 27.157 14.251 26.8134Z" fill="#FB28C0"/>
</g>
<defs>
<clipPath id="clip0">
<path d="M0 0H30V30H0V0Z" fill="white"/>
</clipPath>
</defs>
</svg>
