<svg width="1440" height="1024" viewBox="0 0 1440 1024" fill="none" xmlns="http://www.w3.org/2000/svg">
<g opacity="0.45">
<path d="M1511.85 583.345L1368.85 717.765L1348.92 669.797C1346.06 662.879 1341.76 656.723 1336.14 651.44C1313.84 630.481 1277.55 630.48 1255.25 651.441C1232.95 672.405 1232.96 706.509 1255.25 727.468C1260.87 732.751 1267.45 736.805 1274.77 739.498L1325.77 758.241L1182.8 892.627L853.77 583.353L984.526 460.447C984.407 459.863 984.146 459.346 983.826 459.046L983.826 459.045C983.777 458.999 983.722 458.948 983.664 458.91C981.387 459.084 979.576 459.211 977.004 459.235C957.617 458.97 939.687 451.866 926.223 439.21C897.758 412.454 897.763 368.911 926.227 342.156C954.691 315.401 1001.01 315.399 1029.48 342.155C1042.96 354.827 1050.52 371.675 1050.77 389.609L1050.4 395.34C1050.56 395.712 1050.72 395.94 1050.83 396.036C1051.2 396.385 1051.72 396.607 1052.3 396.711L1182.8 274.049L1313.44 396.847C1314 396.691 1314.62 396.404 1315.07 395.977C1315.06 395.473 1315.03 394.918 1314.99 394.306C1314.93 393.075 1314.85 391.611 1314.84 389.857C1315.14 371.644 1322.7 354.782 1336.14 342.153C1364.59 315.406 1410.93 315.408 1439.38 342.155C1467.86 368.918 1467.85 412.457 1439.39 439.205C1425.94 451.851 1408 458.964 1388.87 459.22L1382.9 458.971C1382.29 459.39 1381.74 460.166 1381.51 460.831L1511.85 583.345ZM1377.8 677.61L1478.09 583.347L1362.5 474.699C1360.49 472.809 1359.04 470.441 1358.35 467.884C1354.65 454.834 1364.33 439.539 1378.86 436.672L1381.95 436.456L1388.56 436.788C1401.41 436.612 1413.48 431.836 1422.51 423.345C1441.67 405.337 1441.66 376.041 1422.51 358.041C1403.36 340.034 1372.17 340.026 1353.02 358.027C1343.99 366.513 1338.91 377.863 1338.72 389.974C1338.73 391.337 1338.86 392.529 1338.98 393.704L1339 393.846C1339.27 396.119 1339.2 398.75 1338.82 400.619C1334.19 415.889 1319.25 421.927 1305.89 418.604C1303.11 417.898 1300.66 416.573 1298.68 414.712L1182.81 305.801L1067.23 414.443C1065.26 416.299 1062.78 417.64 1060.1 418.324C1050.7 420.688 1040.68 418.229 1033.97 411.914C1030.37 408.536 1027.89 404.091 1026.78 399.044L1026.53 394.434L1026.9 390.451C1026.57 377.543 1021.51 366.428 1012.58 358.032C993.42 340.021 962.261 340.021 943.098 358.033C923.936 376.045 923.933 405.337 943.094 423.348C952.136 431.847 964.197 436.614 977.056 436.798C978.557 436.783 979.748 436.677 980.898 436.55C983.486 436.286 986.392 436.353 988.379 436.717C993.784 438.162 997.633 440.301 1000.69 443.175C1007.38 449.466 1010.01 458.838 1007.53 467.635C1006.81 470.223 1005.37 472.57 1003.38 474.442L887.524 583.342L1182.79 860.879L1283.06 766.626L1266.07 760.378C1255.66 756.544 1246.34 750.813 1238.38 743.329C1206.77 713.622 1206.76 665.281 1238.38 635.565C1269.99 605.853 1321.42 605.857 1353.03 635.564C1361 643.056 1367.1 651.811 1371.17 661.62L1377.8 677.61Z" fill="#342D46"/>
<path d="M1511.85 583.345L1368.85 717.765L1348.92 669.797C1346.06 662.879 1341.76 656.723 1336.14 651.44C1313.84 630.481 1277.55 630.48 1255.25 651.441C1232.95 672.405 1232.96 706.509 1255.25 727.468C1260.87 732.751 1267.45 736.805 1274.77 739.498L1325.77 758.241L1182.8 892.627L853.77 583.353L984.526 460.447C984.407 459.863 984.146 459.346 983.826 459.046L983.826 459.045C983.777 458.999 983.722 458.948 983.664 458.91C981.387 459.084 979.576 459.211 977.004 459.235C957.617 458.97 939.687 451.866 926.223 439.21C897.758 412.454 897.763 368.911 926.227 342.156C954.691 315.401 1001.01 315.399 1029.48 342.155C1042.96 354.827 1050.52 371.675 1050.77 389.609L1050.4 395.34C1050.56 395.712 1050.72 395.94 1050.83 396.036C1051.2 396.385 1051.72 396.607 1052.3 396.711L1182.8 274.049L1313.44 396.847C1314 396.691 1314.62 396.404 1315.07 395.977C1315.06 395.473 1315.03 394.918 1314.99 394.306C1314.93 393.075 1314.85 391.611 1314.84 389.857C1315.14 371.644 1322.7 354.782 1336.14 342.153C1364.59 315.406 1410.93 315.408 1439.38 342.155C1467.86 368.918 1467.85 412.457 1439.39 439.205C1425.94 451.851 1408 458.964 1388.87 459.22L1382.9 458.971C1382.29 459.39 1381.74 460.166 1381.51 460.831L1511.85 583.345ZM1377.8 677.61L1478.09 583.347L1362.5 474.699C1360.49 472.809 1359.04 470.441 1358.35 467.884C1354.65 454.834 1364.33 439.539 1378.86 436.672L1381.95 436.456L1388.56 436.788C1401.41 436.612 1413.48 431.836 1422.51 423.345C1441.67 405.337 1441.66 376.041 1422.51 358.041C1403.36 340.034 1372.17 340.026 1353.02 358.027C1343.99 366.513 1338.91 377.863 1338.72 389.974C1338.73 391.337 1338.86 392.529 1338.98 393.704L1339 393.846C1339.27 396.119 1339.2 398.75 1338.82 400.619C1334.19 415.889 1319.25 421.927 1305.89 418.604C1303.11 417.898 1300.66 416.573 1298.68 414.712L1182.81 305.801L1067.23 414.443C1065.26 416.299 1062.78 417.64 1060.1 418.324C1050.7 420.688 1040.68 418.229 1033.97 411.914C1030.37 408.536 1027.89 404.091 1026.78 399.044L1026.53 394.434L1026.9 390.451C1026.57 377.543 1021.51 366.428 1012.58 358.032C993.42 340.021 962.261 340.021 943.098 358.033C923.936 376.045 923.933 405.337 943.094 423.348C952.136 431.847 964.197 436.614 977.056 436.798C978.557 436.783 979.748 436.677 980.898 436.55C983.486 436.286 986.392 436.353 988.379 436.717C993.784 438.162 997.633 440.301 1000.69 443.175C1007.38 449.466 1010.01 458.838 1007.53 467.635C1006.81 470.223 1005.37 472.57 1003.38 474.442L887.524 583.342L1182.79 860.879L1283.06 766.626L1266.07 760.378C1255.66 756.544 1246.34 750.813 1238.38 743.329C1206.77 713.622 1206.76 665.281 1238.38 635.565C1269.99 605.853 1321.42 605.857 1353.03 635.564C1361 643.056 1367.1 651.811 1371.17 661.62L1377.8 677.61Z" stroke="black"/>
</g>
<g opacity="0.45">
<path d="M1050.12 149.337L907.115 283.758L887.194 235.79C884.329 228.872 880.029 222.716 874.408 217.433C852.11 196.474 815.823 196.473 793.524 217.434C771.221 238.397 771.226 272.502 793.524 293.46C799.145 298.744 805.715 302.798 813.04 305.49L864.039 324.233L721.069 458.62L392.039 149.345L522.796 26.4393C522.676 25.8553 522.415 25.339 522.095 25.0382L522.095 25.038C522.046 24.992 521.992 24.9405 521.934 24.9026C519.656 25.0761 517.845 25.2035 515.274 25.228C495.886 24.9626 477.957 17.8582 464.492 5.202C436.028 -21.5536 436.033 -65.0963 464.497 -91.8514C492.961 -118.606 539.282 -118.608 567.747 -91.8529C581.229 -79.1804 588.79 -62.3328 589.042 -44.3984L588.674 -38.6677C588.831 -38.2951 588.993 -38.0674 589.095 -37.9712C589.466 -37.623 589.99 -37.4008 590.571 -37.2964L721.069 -159.959L851.711 -37.1606C852.271 -37.3165 852.888 -37.6037 853.343 -38.0306C853.326 -38.5348 853.296 -39.0895 853.263 -39.7018C853.197 -40.9327 853.118 -42.3964 853.112 -44.1501C853.405 -62.3637 860.972 -79.2251 874.409 -91.8546C902.864 -118.602 949.198 -118.6 977.654 -91.852C1006.13 -65.0897 1006.12 -21.551 977.66 5.19731C964.206 17.8431 946.268 24.9561 927.136 25.2125L921.168 24.9633C920.558 25.382 920.014 26.1585 919.782 26.8238L1050.12 149.337ZM916.072 243.603L1016.36 149.339L900.77 40.692C898.759 38.8017 897.308 36.433 896.615 33.876C892.922 20.8267 902.6 5.53173 917.126 2.6642L920.224 2.44866L926.828 2.7806C939.679 2.60425 951.748 -2.17124 960.782 -10.6623C979.94 -28.6702 979.932 -57.967 960.783 -75.9662C941.625 -93.9736 910.442 -93.9812 891.291 -75.9801C882.264 -67.4945 877.177 -56.1442 876.988 -44.0339C876.995 -42.6701 877.125 -41.479 877.253 -40.303L877.268 -40.1611C877.54 -37.8886 877.474 -35.2571 877.086 -33.3885C872.463 -18.118 857.517 -12.0809 844.156 -15.4034C841.378 -16.1094 838.93 -17.4346 836.951 -19.2951L721.083 -128.206L605.501 -19.5641C603.527 -17.709 601.053 -16.3674 598.37 -15.683C588.965 -13.3196 578.953 -15.779 572.235 -22.0935C568.641 -25.4717 566.156 -29.9163 565.047 -34.964L564.799 -39.5739L565.17 -43.5565C564.841 -56.465 559.784 -67.5793 550.852 -75.9752C531.69 -93.9866 500.53 -93.9862 481.368 -75.9742C462.205 -57.9622 462.202 -28.6709 481.364 -10.6594C490.406 -2.16051 502.466 2.60648 515.326 2.79059C516.827 2.77566 518.017 2.66994 519.168 2.54255C521.756 2.27828 524.662 2.34599 526.648 2.70912C532.053 4.15491 535.902 6.29318 538.96 9.16726C545.653 15.4588 548.28 24.8305 545.8 33.6277C545.076 36.2159 543.64 38.5629 541.65 40.4343L425.794 149.334L721.059 426.872L821.332 332.619L804.34 326.371C793.928 322.536 784.608 316.806 776.646 309.322C745.042 279.615 745.034 231.274 776.648 201.558C808.258 171.846 859.691 171.849 891.295 201.556C899.266 209.048 905.368 217.803 909.438 227.613L916.072 243.603Z" fill="#342D46"/>
<path d="M1050.12 149.337L907.115 283.758L887.194 235.79C884.329 228.872 880.029 222.716 874.408 217.433C852.11 196.474 815.823 196.473 793.524 217.434C771.221 238.397 771.226 272.502 793.524 293.46C799.145 298.744 805.715 302.798 813.04 305.49L864.039 324.233L721.069 458.62L392.039 149.345L522.796 26.4393C522.676 25.8553 522.415 25.339 522.095 25.0382L522.095 25.038C522.046 24.992 521.992 24.9405 521.934 24.9026C519.656 25.0761 517.845 25.2035 515.274 25.228C495.886 24.9626 477.957 17.8582 464.492 5.202C436.028 -21.5536 436.033 -65.0963 464.497 -91.8514C492.961 -118.606 539.282 -118.608 567.747 -91.8529C581.229 -79.1804 588.79 -62.3328 589.042 -44.3984L588.674 -38.6677C588.831 -38.2951 588.993 -38.0674 589.095 -37.9712C589.466 -37.623 589.99 -37.4008 590.571 -37.2964L721.069 -159.959L851.711 -37.1606C852.271 -37.3165 852.888 -37.6037 853.343 -38.0306C853.326 -38.5348 853.296 -39.0895 853.263 -39.7018C853.197 -40.9327 853.118 -42.3964 853.112 -44.1501C853.405 -62.3637 860.972 -79.2251 874.409 -91.8546C902.864 -118.602 949.198 -118.6 977.654 -91.852C1006.13 -65.0897 1006.12 -21.551 977.66 5.19731C964.206 17.8431 946.268 24.9561 927.136 25.2125L921.168 24.9633C920.558 25.382 920.014 26.1585 919.782 26.8238L1050.12 149.337ZM916.072 243.603L1016.36 149.339L900.77 40.692C898.759 38.8017 897.308 36.433 896.615 33.876C892.922 20.8267 902.6 5.53173 917.126 2.6642L920.224 2.44866L926.828 2.7806C939.679 2.60425 951.748 -2.17124 960.782 -10.6623C979.94 -28.6702 979.932 -57.967 960.783 -75.9662C941.625 -93.9736 910.442 -93.9812 891.291 -75.9801C882.264 -67.4945 877.177 -56.1442 876.988 -44.0339C876.995 -42.6701 877.125 -41.479 877.253 -40.303L877.268 -40.1611C877.54 -37.8886 877.474 -35.2571 877.086 -33.3885C872.463 -18.118 857.517 -12.0809 844.156 -15.4034C841.378 -16.1094 838.93 -17.4346 836.951 -19.2951L721.083 -128.206L605.501 -19.5641C603.527 -17.709 601.053 -16.3674 598.37 -15.683C588.965 -13.3196 578.953 -15.779 572.235 -22.0935C568.641 -25.4717 566.156 -29.9163 565.047 -34.964L564.799 -39.5739L565.17 -43.5565C564.841 -56.465 559.784 -67.5793 550.852 -75.9752C531.69 -93.9866 500.53 -93.9862 481.368 -75.9742C462.205 -57.9622 462.202 -28.6709 481.364 -10.6594C490.406 -2.16051 502.466 2.60648 515.326 2.79059C516.827 2.77566 518.017 2.66994 519.168 2.54255C521.756 2.27828 524.662 2.34599 526.648 2.70912C532.053 4.15491 535.902 6.29318 538.96 9.16726C545.653 15.4588 548.28 24.8305 545.8 33.6277C545.076 36.2159 543.64 38.5629 541.65 40.4343L425.794 149.334L721.059 426.872L821.332 332.619L804.34 326.371C793.928 322.536 784.608 316.806 776.646 309.322C745.042 279.615 745.034 231.274 776.648 201.558C808.258 171.846 859.691 171.849 891.295 201.556C899.266 209.048 905.368 217.803 909.438 227.613L916.072 243.603Z" stroke="black"/>
</g>
<g opacity="0.45">
<path d="M1017.89 1047.65L874.879 1182.07L854.958 1134.11C852.093 1127.19 847.793 1121.03 842.172 1115.75C819.875 1094.79 783.587 1094.79 761.288 1115.75C738.985 1136.71 738.99 1170.82 761.288 1191.78C766.909 1197.06 773.48 1201.11 780.804 1203.81L831.803 1222.55L688.833 1356.94L359.803 1047.66L490.56 924.755C490.441 924.171 490.18 923.654 489.86 923.354C489.811 923.308 489.756 923.256 489.698 923.218C487.42 923.392 485.61 923.519 483.038 923.543C463.651 923.278 445.721 916.174 432.256 903.517C403.792 876.762 403.797 833.219 432.261 806.464C460.725 779.709 507.046 779.707 535.511 806.463C548.993 819.135 556.554 835.983 556.806 853.917L556.438 859.648C556.595 860.02 556.757 860.248 556.859 860.344C557.23 860.692 557.754 860.915 558.335 861.019L688.833 738.357L819.475 861.155C820.036 860.999 820.653 860.712 821.107 860.285C821.09 859.781 821.06 859.226 821.027 858.614C820.961 857.383 820.882 855.919 820.876 854.165C821.169 835.952 828.736 819.09 842.173 806.461C870.628 779.714 916.962 779.716 945.418 806.463C973.89 833.226 973.881 876.764 945.424 903.513C931.97 916.159 914.032 923.272 894.9 923.528L888.932 923.279C888.322 923.697 887.778 924.474 887.546 925.139L1017.89 1047.65ZM883.836 1141.92L984.121 1047.65L868.534 939.007C866.523 937.117 865.072 934.749 864.379 932.191C860.686 919.142 870.364 903.847 884.89 900.98L887.988 900.764L894.592 901.096C907.443 900.92 919.512 896.144 928.546 887.653C947.704 869.645 947.696 840.349 928.547 822.349C909.389 804.342 878.206 804.334 859.055 822.335C850.028 830.821 844.942 842.171 844.752 854.282C844.759 855.645 844.889 856.836 845.017 858.012L845.032 858.154C845.304 860.427 845.238 863.058 844.85 864.927C840.227 880.197 825.281 886.235 811.92 882.912C809.142 882.206 806.694 880.881 804.715 879.02L688.847 770.109L573.265 878.751C571.291 880.607 568.817 881.948 566.134 882.632C556.729 884.996 546.717 882.536 539.999 876.222C536.405 872.844 533.92 868.399 532.811 863.352L532.563 858.742L532.934 854.759C532.605 841.85 527.548 830.736 518.616 822.34C499.454 804.329 468.295 804.329 449.132 822.341C429.97 840.353 429.966 869.645 449.128 887.656C458.17 896.155 470.231 900.922 483.09 901.106C484.591 901.091 485.782 900.985 486.932 900.858C489.52 900.594 492.426 900.661 494.413 901.025C499.817 902.47 503.666 904.609 506.724 907.483C513.417 913.774 516.044 923.146 513.564 931.943C512.84 934.531 511.405 936.878 509.414 938.75L393.558 1047.65L688.823 1325.19L789.096 1230.93L772.104 1224.69C761.692 1220.85 752.372 1215.12 744.41 1207.64C712.806 1177.93 712.798 1129.59 744.412 1099.87C776.022 1070.16 827.455 1070.16 859.06 1099.87C867.03 1107.36 873.133 1116.12 877.202 1125.93L883.836 1141.92Z" fill="#342D46"/>
<path d="M1017.89 1047.65L874.879 1182.07L854.958 1134.11C852.093 1127.19 847.793 1121.03 842.172 1115.75C819.875 1094.79 783.587 1094.79 761.288 1115.75C738.985 1136.71 738.99 1170.82 761.288 1191.78C766.909 1197.06 773.48 1201.11 780.804 1203.81L831.803 1222.55L688.833 1356.94L359.803 1047.66L490.56 924.755C490.441 924.171 490.18 923.654 489.86 923.354C489.811 923.308 489.756 923.256 489.698 923.218C487.42 923.392 485.61 923.519 483.038 923.543C463.651 923.278 445.721 916.174 432.256 903.517C403.792 876.762 403.797 833.219 432.261 806.464C460.725 779.709 507.046 779.707 535.511 806.463C548.993 819.135 556.554 835.983 556.806 853.917L556.438 859.648C556.595 860.02 556.757 860.248 556.859 860.344C557.23 860.692 557.754 860.915 558.335 861.019L688.833 738.357L819.475 861.155C820.036 860.999 820.653 860.712 821.107 860.285C821.09 859.781 821.06 859.226 821.027 858.614C820.961 857.383 820.882 855.919 820.876 854.165C821.169 835.952 828.736 819.09 842.173 806.461C870.628 779.714 916.962 779.716 945.418 806.463C973.89 833.226 973.881 876.764 945.424 903.513C931.97 916.159 914.032 923.272 894.9 923.528L888.932 923.279C888.322 923.697 887.778 924.474 887.546 925.139L1017.89 1047.65ZM883.836 1141.92L984.121 1047.65L868.534 939.007C866.523 937.117 865.072 934.749 864.379 932.191C860.686 919.142 870.364 903.847 884.89 900.98L887.988 900.764L894.592 901.096C907.443 900.92 919.512 896.144 928.546 887.653C947.704 869.645 947.696 840.349 928.547 822.349C909.389 804.342 878.206 804.334 859.055 822.335C850.028 830.821 844.942 842.171 844.752 854.282C844.759 855.645 844.889 856.836 845.017 858.012L845.032 858.154C845.304 860.427 845.238 863.058 844.85 864.927C840.227 880.197 825.281 886.235 811.92 882.912C809.142 882.206 806.694 880.881 804.715 879.02L688.847 770.109L573.265 878.751C571.291 880.607 568.817 881.948 566.134 882.632C556.729 884.996 546.717 882.536 539.999 876.222C536.405 872.844 533.92 868.399 532.811 863.352L532.563 858.742L532.934 854.759C532.605 841.85 527.548 830.736 518.616 822.34C499.454 804.329 468.295 804.329 449.132 822.341C429.97 840.353 429.966 869.645 449.128 887.656C458.17 896.155 470.231 900.922 483.09 901.106C484.591 901.091 485.782 900.985 486.932 900.858C489.52 900.594 492.426 900.661 494.413 901.025C499.817 902.47 503.666 904.609 506.724 907.483C513.417 913.774 516.044 923.146 513.564 931.943C512.84 934.531 511.405 936.878 509.414 938.75L393.558 1047.65L688.823 1325.19L789.096 1230.93L772.104 1224.69C761.692 1220.85 752.372 1215.12 744.41 1207.64C712.806 1177.93 712.798 1129.59 744.412 1099.87C776.022 1070.16 827.455 1070.16 859.06 1099.87C867.03 1107.36 873.133 1116.12 877.202 1125.93L883.836 1141.92Z" stroke="black"/>
</g>
<g opacity="0.45">
<path d="M556.155 613.645L413.149 748.065L393.227 700.097C390.363 693.179 386.063 687.023 380.442 681.74C358.144 660.781 321.857 660.78 299.557 681.741C277.255 702.704 277.26 736.809 299.558 757.768C305.178 763.051 311.749 767.105 319.074 769.798L370.073 788.541L227.103 922.927L-101.927 613.653L28.8299 490.747C28.7103 490.163 28.4494 489.646 28.1293 489.346C28.0803 489.299 28.0255 489.248 27.9679 489.21C25.6901 489.384 23.8794 489.511 21.3075 489.535C1.92038 489.27 -16.0091 482.166 -29.4738 469.509C-57.9385 442.754 -57.9334 399.211 -29.4693 372.456C-1.00525 345.701 45.3159 345.699 73.7806 372.455C87.2626 385.127 94.8237 401.975 95.0757 419.909L94.708 425.64C94.8651 426.012 95.0266 426.24 95.1289 426.336C95.4994 426.684 96.0242 426.907 96.6052 427.011L227.103 304.349L357.745 427.147C358.305 426.991 358.922 426.704 359.376 426.277C359.36 425.773 359.33 425.218 359.297 424.606C359.231 423.375 359.152 421.911 359.146 420.157C359.439 401.944 367.006 385.082 380.443 372.453C408.898 345.706 455.232 345.708 483.688 372.455C512.16 399.218 512.151 442.756 483.694 469.505C470.24 482.151 452.302 489.264 433.17 489.52L427.202 489.271C426.592 489.689 426.048 490.466 425.816 491.131L556.155 613.645ZM422.106 707.91L522.391 613.647L406.804 504.999C404.792 503.109 403.342 500.74 402.649 498.183C398.956 485.134 408.634 469.839 423.16 466.972L426.258 466.756L432.862 467.088C445.712 466.912 457.782 462.136 466.815 453.645C485.974 435.637 485.965 406.34 466.816 388.341C447.659 370.334 416.476 370.326 397.325 388.327C388.298 396.813 383.211 408.163 383.022 420.273C383.029 421.637 383.159 422.828 383.286 424.004L383.302 424.146C383.574 426.419 383.508 429.05 383.12 430.919C378.497 446.189 363.551 452.226 350.19 448.904C347.412 448.198 344.964 446.873 342.985 445.012L227.116 336.101L111.534 444.743C109.561 446.598 107.087 447.94 104.404 448.624C94.9988 450.988 84.9867 448.528 78.2688 442.214C74.6748 438.836 72.1895 434.391 71.081 429.343L70.8331 424.733L71.2036 420.751C70.8751 407.842 65.8181 396.728 56.8858 388.332C37.7239 370.321 6.56438 370.321 -12.5981 388.333C-31.7606 406.345 -31.764 435.637 -12.6021 453.648C-3.56028 462.147 8.50036 466.914 21.3597 467.098C22.8605 467.083 24.0513 466.977 25.2017 466.85C27.7895 466.586 30.6958 466.653 32.6824 467.017C38.087 468.462 41.9362 470.601 44.9938 473.475C51.6873 479.766 54.3138 489.138 51.834 497.935C51.1103 500.523 49.6743 502.87 47.6834 504.742L-68.1726 613.641L227.093 891.179L327.366 796.926L310.374 790.678C299.962 786.844 290.642 781.113 282.68 773.629C251.076 743.922 251.068 695.581 282.682 665.865C314.292 636.153 365.725 636.157 397.329 665.864C405.3 673.356 411.402 682.111 415.472 691.92L422.106 707.91Z" fill="#342D46"/>
<path d="M556.155 613.645L413.149 748.065L393.227 700.097C390.363 693.179 386.063 687.023 380.442 681.74C358.144 660.781 321.857 660.78 299.557 681.741C277.255 702.704 277.26 736.809 299.558 757.768C305.178 763.051 311.749 767.105 319.074 769.798L370.073 788.541L227.103 922.927L-101.927 613.653L28.8299 490.747C28.7103 490.163 28.4494 489.646 28.1293 489.346C28.0803 489.299 28.0255 489.248 27.9679 489.21C25.6901 489.384 23.8794 489.511 21.3075 489.535C1.92038 489.27 -16.0091 482.166 -29.4738 469.509C-57.9385 442.754 -57.9334 399.211 -29.4693 372.456C-1.00525 345.701 45.3159 345.699 73.7806 372.455C87.2626 385.127 94.8237 401.975 95.0757 419.909L94.708 425.64C94.8651 426.012 95.0266 426.24 95.1289 426.336C95.4994 426.684 96.0242 426.907 96.6052 427.011L227.103 304.349L357.745 427.147C358.305 426.991 358.922 426.704 359.376 426.277C359.36 425.773 359.33 425.218 359.297 424.606C359.231 423.375 359.152 421.911 359.146 420.157C359.439 401.944 367.006 385.082 380.443 372.453C408.898 345.706 455.232 345.708 483.688 372.455C512.16 399.218 512.151 442.756 483.694 469.505C470.24 482.151 452.302 489.264 433.17 489.52L427.202 489.271C426.592 489.689 426.048 490.466 425.816 491.131L556.155 613.645ZM422.106 707.91L522.391 613.647L406.804 504.999C404.792 503.109 403.342 500.74 402.649 498.183C398.956 485.134 408.634 469.839 423.16 466.972L426.258 466.756L432.862 467.088C445.712 466.912 457.782 462.136 466.815 453.645C485.974 435.637 485.965 406.34 466.816 388.341C447.659 370.334 416.476 370.326 397.325 388.327C388.298 396.813 383.211 408.163 383.022 420.273C383.029 421.637 383.159 422.828 383.286 424.004L383.302 424.146C383.574 426.419 383.508 429.05 383.12 430.919C378.497 446.189 363.551 452.226 350.19 448.904C347.412 448.198 344.964 446.873 342.985 445.012L227.116 336.101L111.534 444.743C109.561 446.598 107.087 447.94 104.404 448.624C94.9988 450.988 84.9867 448.528 78.2688 442.214C74.6748 438.836 72.1895 434.391 71.081 429.343L70.8331 424.733L71.2036 420.751C70.8751 407.842 65.8181 396.728 56.8858 388.332C37.7239 370.321 6.56438 370.321 -12.5981 388.333C-31.7606 406.345 -31.764 435.637 -12.6021 453.648C-3.56028 462.147 8.50036 466.914 21.3597 467.098C22.8605 467.083 24.0513 466.977 25.2017 466.85C27.7895 466.586 30.6958 466.653 32.6824 467.017C38.087 468.462 41.9362 470.601 44.9938 473.475C51.6873 479.766 54.3138 489.138 51.834 497.935C51.1103 500.523 49.6743 502.87 47.6834 504.742L-68.1726 613.641L227.093 891.179L327.366 796.926L310.374 790.678C299.962 786.844 290.642 781.113 282.68 773.629C251.076 743.922 251.068 695.581 282.682 665.865C314.292 636.153 365.725 636.157 397.329 665.864C405.3 673.356 411.402 682.111 415.472 691.92L422.106 707.91Z" stroke="black"/>
</g>
</svg>
