<svg width="389" height="81" viewBox="0 0 389 81" fill="none" xmlns="http://www.w3.org/2000/svg">
<path d="M101.735 66.7282C99.4953 66.7282 97.4953 66.2482 95.7353 65.2882C94.0073 64.2962 92.6473 62.9362 91.6553 61.2082C90.6953 59.4482 90.2153 57.4482 90.2153 55.2082C90.2153 54.4722 90.4553 53.8802 90.9353 53.4322C91.4153 52.9522 92.0073 52.7122 92.7113 52.7122C93.4473 52.7122 94.0393 52.9522 94.4873 53.4322C94.9673 53.8802 95.2073 54.4722 95.2073 55.2082C95.2073 57.2562 95.8153 58.9362 97.0313 60.2482C98.2473 61.5602 99.8153 62.2162 101.735 62.2162C103.655 62.2162 105.223 61.5602 106.439 60.2482C107.687 58.9362 108.311 57.2562 108.311 55.2082V31.2562C108.311 30.5202 108.535 29.9282 108.983 29.4802C109.463 29.0002 110.055 28.7602 110.759 28.7602C111.495 28.7602 112.103 29.0002 112.583 29.4802C113.063 29.9282 113.303 30.5202 113.303 31.2562V55.2082C113.303 57.4482 112.807 59.4482 111.815 61.2082C110.823 62.9362 109.463 64.2962 107.735 65.2882C106.007 66.2482 104.007 66.7282 101.735 66.7282ZM144.838 66.2482C144.134 66.2482 143.542 66.0082 143.062 65.5282C142.582 65.0482 142.342 64.4562 142.342 63.7522V31.2562C142.342 30.5202 142.582 29.9282 143.062 29.4802C143.542 29.0002 144.134 28.7602 144.838 28.7602C145.574 28.7602 146.166 29.0002 146.614 29.4802C147.094 29.9282 147.334 30.5202 147.334 31.2562V63.7522C147.334 64.4562 147.094 65.0482 146.614 65.5282C146.166 66.0082 145.574 66.2482 144.838 66.2482ZM193.16 66.7282C190.568 66.7282 188.136 66.2482 185.864 65.2882C183.624 64.2962 181.656 62.9362 179.96 61.2082C178.296 59.4482 176.984 57.4002 176.024 55.0642C175.096 52.7282 174.632 50.2002 174.632 47.4802C174.632 44.7922 175.096 42.2962 176.024 39.9922C176.984 37.6562 178.296 35.6242 179.96 33.8962C181.656 32.1362 183.624 30.7602 185.864 29.7682C188.104 28.7762 190.536 28.2802 193.16 28.2802C195.624 28.2802 197.736 28.6002 199.496 29.2402C201.288 29.8802 203.08 30.9362 204.872 32.4082C205.256 32.7282 205.512 33.0322 205.64 33.3202C205.768 33.6082 205.832 33.9602 205.832 34.3762C205.832 34.9842 205.608 35.4962 205.16 35.9122C204.744 36.3282 204.216 36.5522 203.576 36.5842C202.968 36.6162 202.392 36.4082 201.848 35.9602C200.664 34.9362 199.432 34.1522 198.152 33.6082C196.904 33.0642 195.24 32.7922 193.16 32.7922C191.272 32.7922 189.496 33.1762 187.832 33.9442C186.168 34.7122 184.696 35.7682 183.416 37.1122C182.168 38.4562 181.192 40.0242 180.488 41.8162C179.784 43.5762 179.432 45.4642 179.432 47.4802C179.432 49.5282 179.784 51.4482 180.488 53.2402C181.192 55.0002 182.168 56.5522 183.416 57.8962C184.696 59.2402 186.168 60.2962 187.832 61.0642C189.496 61.8002 191.272 62.1682 193.16 62.1682C194.568 62.1682 195.912 61.9602 197.192 61.5442C198.472 61.1282 199.704 60.5362 200.888 59.7682V51.2242H194.264C193.56 51.2242 192.968 51.0162 192.488 50.6002C192.008 50.1842 191.768 49.6562 191.768 49.0162C191.768 48.3762 192.008 47.8482 192.488 47.4322C192.968 47.0162 193.56 46.8082 194.264 46.8082H203.24C203.976 46.8082 204.568 47.0482 205.016 47.5282C205.464 47.9762 205.688 48.5682 205.688 49.3042V60.7762C205.688 61.0962 205.624 61.4162 205.496 61.7362C205.4 62.0242 205.208 62.2962 204.92 62.5522C203.224 63.9602 201.384 65.0162 199.4 65.7202C197.416 66.3922 195.336 66.7282 193.16 66.7282ZM245.017 66.7282C242.969 66.7282 241.017 66.4082 239.161 65.7682C237.305 65.1282 235.689 64.2322 234.313 63.0802C232.937 61.9282 231.929 60.6002 231.289 59.0962C230.969 58.4242 230.969 57.8002 231.289 57.2242C231.641 56.6482 232.217 56.2802 233.017 56.1202C233.593 55.9922 234.153 56.0882 234.697 56.4082C235.273 56.6962 235.705 57.1442 235.993 57.7522C236.377 58.5522 237.001 59.2882 237.865 59.9602C238.761 60.6322 239.833 61.1762 241.081 61.5922C242.329 62.0082 243.641 62.2162 245.017 62.2162C246.553 62.2162 247.961 61.9762 249.241 61.4962C250.553 61.0162 251.609 60.3282 252.409 59.4322C253.209 58.5042 253.609 57.3682 253.609 56.0242C253.609 54.3282 252.937 52.8082 251.593 51.4642C250.281 50.1202 248.105 49.2882 245.065 48.9682C241.097 48.5842 237.977 47.4162 235.705 45.4642C233.433 43.5122 232.297 41.0962 232.297 38.2162C232.297 36.1042 232.889 34.3122 234.073 32.8402C235.257 31.3682 236.857 30.2482 238.873 29.4802C240.921 28.7122 243.193 28.3282 245.689 28.3282C248.601 28.3282 250.985 28.9202 252.841 30.1042C254.697 31.2882 256.233 32.8562 257.449 34.8082C257.897 35.5122 258.073 36.1842 257.977 36.8242C257.913 37.4322 257.609 37.9122 257.065 38.2642C256.457 38.6482 255.801 38.7282 255.097 38.5042C254.393 38.2802 253.865 37.8642 253.513 37.2562C252.713 35.8802 251.673 34.8082 250.393 34.0402C249.145 33.2722 247.529 32.8722 245.545 32.8402C243.177 32.8082 241.193 33.2562 239.593 34.1842C237.993 35.0802 237.193 36.4722 237.193 38.3602C237.193 39.3202 237.433 40.2482 237.913 41.1442C238.425 42.0082 239.337 42.7602 240.649 43.4002C241.993 44.0402 243.913 44.4882 246.409 44.7442C250.217 45.1282 253.177 46.2962 255.289 48.2482C257.433 50.1682 258.505 52.7122 258.505 55.8802C258.505 57.7042 258.121 59.2882 257.353 60.6322C256.617 61.9762 255.609 63.1122 254.329 64.0402C253.081 64.9362 251.641 65.6082 250.009 66.0562C248.409 66.5042 246.745 66.7282 245.017 66.7282ZM284.112 66.2482C283.216 66.2482 282.528 65.8642 282.048 65.0962C281.568 64.3282 281.52 63.5122 281.904 62.6482L295.392 30.4402C295.872 29.3202 296.656 28.7602 297.744 28.7602C298.896 28.7602 299.68 29.3202 300.096 30.4402L313.632 62.7442C313.984 63.6402 313.92 64.4562 313.44 65.1922C312.992 65.8962 312.304 66.2482 311.376 66.2482C310.896 66.2482 310.432 66.1202 309.984 65.8642C309.568 65.5762 309.264 65.1922 309.072 64.7122L306.384 57.9922H289.152L286.416 64.7122C286.192 65.2242 285.856 65.6082 285.408 65.8642C284.992 66.1202 284.56 66.2482 284.112 66.2482ZM290.832 53.8642H304.704L297.84 36.7762L290.832 53.8642ZM342.914 66.2482C341.666 66.2482 340.834 65.5922 340.418 64.2802L330.77 32.2162C330.45 31.1602 330.466 30.3282 330.818 29.7202C331.202 29.0802 331.81 28.7602 332.642 28.7602C333.186 28.7602 333.682 28.9202 334.13 29.2402C334.578 29.5282 334.898 29.9922 335.09 30.6322L342.962 57.9922L350.21 30.9202C350.338 30.4402 350.626 30.0402 351.074 29.7202C351.522 29.4002 352.034 29.2402 352.61 29.2402C353.122 29.2402 353.602 29.3842 354.05 29.6722C354.53 29.9282 354.834 30.3282 354.962 30.8722L362.306 58.1842L370.274 30.3922C370.594 29.3042 371.41 28.7602 372.722 28.7602C373.618 28.7602 374.194 29.1122 374.45 29.8162C374.706 30.4882 374.706 31.2882 374.45 32.2162L364.802 64.2322C364.578 64.8402 364.242 65.3362 363.794 65.7202C363.378 66.0722 362.882 66.2482 362.306 66.2482C361.698 66.2482 361.17 66.0562 360.722 65.6722C360.306 65.2882 360.002 64.8242 359.81 64.2802L352.658 36.6322L345.41 64.2322C345.186 64.8402 344.85 65.3362 344.402 65.7202C343.986 66.0722 343.49 66.2482 342.914 66.2482Z" fill="white"/>
<g clip-path="url(#clip0)">
<path d="M66.5747 45.5423L53.8837 58.2334L52.1157 53.7044C51.8614 53.0513 51.4798 52.4701 50.981 51.9712C49.0021 49.9924 45.7818 49.9923 43.8028 51.9712C41.8236 53.9504 41.8241 57.1704 43.803 59.1493C44.3018 59.6481 44.8849 60.0309 45.535 60.2851L50.061 62.0548L37.3732 74.7426L8.17269 45.5421L19.7766 33.9382C19.766 33.883 19.7428 33.8343 19.7144 33.8059C19.7101 33.8015 19.7052 33.7967 19.7001 33.7931C19.498 33.8095 19.3373 33.8215 19.109 33.8238C17.3885 33.7987 15.7973 33.1279 14.6024 31.933C12.0762 29.4068 12.0766 25.2958 14.6026 22.7697C17.1286 20.2437 21.2394 20.2436 23.7656 22.7698C24.9621 23.9662 25.6331 25.5569 25.6555 27.2502L25.6229 27.7912C25.6368 27.8264 25.6512 27.8479 25.6603 27.857C25.6931 27.8899 25.7397 27.9109 25.7913 27.9207L37.3722 16.3398L48.9663 27.9339C49.016 27.9192 49.0708 27.8921 49.1111 27.8518C49.1067 27.7085 49.0914 27.522 49.0906 27.274C49.1166 25.5544 49.7881 23.9625 50.9805 22.7701C53.5058 20.2448 57.6177 20.2451 60.1431 22.7705C62.6699 25.2973 62.6692 29.4079 60.1438 31.9333C58.9499 33.1273 57.3579 33.7988 55.66 33.823L55.1304 33.7994C55.0763 33.839 55.028 33.9123 55.0074 33.9751L66.5747 45.5423ZM54.6785 54.4421L63.5782 45.5425L53.3202 35.2844C53.1417 35.1059 53.013 34.8823 52.9514 34.6409C52.6237 33.4088 53.4825 31.9648 54.7716 31.6941L55.0466 31.6737L55.6327 31.7051C56.7731 31.6884 57.8442 31.2376 58.6459 30.4359C60.3461 28.7358 60.3453 25.9697 58.6459 24.2703C56.9457 22.5701 54.1784 22.5693 52.4788 24.2689C51.6777 25.07 51.2263 26.1416 51.2095 27.285C51.2102 27.419 51.2226 27.5353 51.2344 27.6507C51.2585 27.8652 51.2527 28.1137 51.2182 28.2901C50.8079 29.7319 49.4816 30.3018 48.2959 29.9881C48.0493 29.9215 47.8321 29.7963 47.6564 29.6207L37.3734 19.3377L27.1162 29.5949C26.9411 29.7701 26.7215 29.8967 26.4834 29.9613C25.6487 30.1845 24.7602 29.9523 24.164 29.3561C23.8451 29.0371 23.6245 28.6175 23.5261 28.1409L23.5041 27.7056L23.537 27.3296C23.5078 26.1109 23.059 25.0615 22.2663 24.2688C20.5657 22.5682 17.8004 22.5682 16.0999 24.2688C14.3993 25.9694 14.3991 28.7349 16.0996 30.4355C16.9021 31.2379 17.9724 31.688 19.1136 31.7054C19.2468 31.704 19.3525 31.694 19.4546 31.682C19.6842 31.657 19.9422 31.6634 20.1185 31.6977C20.5981 31.8342 20.9397 32.0361 21.2111 32.3075C21.8051 32.9015 22.0382 33.7863 21.8181 34.6169C21.7539 34.8613 21.6265 35.0829 21.4498 35.2595L11.1683 45.5411L37.3723 71.7451L46.2709 62.8464L44.7629 62.2565C43.8389 61.8944 43.0118 61.3534 42.3052 60.6468C39.5004 57.842 39.4996 53.2779 42.3052 50.4723C45.1103 47.6671 49.6748 47.6675 52.4796 50.4723C53.187 51.1797 53.7286 52.0063 54.0898 52.9325L54.6785 54.4421Z" fill="white"/>
</g>
<defs>
<clipPath id="clip0">
<rect y="37.3723" width="52.8525" height="52.8525" transform="rotate(-45 0 37.3723)" fill="white"/>
</clipPath>
</defs>
</svg>
