<svg width="146" height="28" viewBox="0 0 146 28" fill="none" xmlns="http://www.w3.org/2000/svg">
<g clip-path="url(#clip0)">
<path d="M37.6198 21.17C36.8265 21.17 36.1181 21 35.4948 20.66C34.8828 20.3087 34.4011 19.827 34.0498 19.215C33.7098 18.5917 33.5398 17.8833 33.5398 17.09C33.5398 16.8293 33.6248 16.6197 33.7948 16.461C33.9648 16.291 34.1745 16.206 34.4238 16.206C34.6845 16.206 34.8941 16.291 35.0528 16.461C35.2228 16.6197 35.3078 16.8293 35.3078 17.09C35.3078 17.8153 35.5231 18.4103 35.9538 18.875C36.3845 19.3397 36.9398 19.572 37.6198 19.572C38.2998 19.572 38.8551 19.3397 39.2858 18.875C39.7278 18.4103 39.9488 17.8153 39.9488 17.09V8.607C39.9488 8.34633 40.0281 8.13667 40.1868 7.978C40.3568 7.808 40.5665 7.723 40.8158 7.723C41.0765 7.723 41.2918 7.808 41.4618 7.978C41.6318 8.13667 41.7168 8.34633 41.7168 8.607V17.09C41.7168 17.8833 41.5411 18.5917 41.1898 19.215C40.8385 19.827 40.3568 20.3087 39.7448 20.66C39.1328 21 38.4245 21.17 37.6198 21.17ZM52.8854 21C52.6361 21 52.4264 20.915 52.2564 20.745C52.0864 20.575 52.0014 20.3653 52.0014 20.116V8.607C52.0014 8.34633 52.0864 8.13667 52.2564 7.978C52.4264 7.808 52.6361 7.723 52.8854 7.723C53.1461 7.723 53.3557 7.808 53.5144 7.978C53.6844 8.13667 53.7694 8.34633 53.7694 8.607V20.116C53.7694 20.3653 53.6844 20.575 53.5144 20.745C53.3557 20.915 53.1461 21 52.8854 21ZM69.9995 21.17C69.0815 21.17 68.2202 21 67.4155 20.66C66.6222 20.3087 65.9252 19.827 65.3245 19.215C64.7352 18.5917 64.2705 17.8663 63.9305 17.039C63.6018 16.2117 63.4375 15.3163 63.4375 14.353C63.4375 13.401 63.6018 12.517 63.9305 11.701C64.2705 10.8737 64.7352 10.154 65.3245 9.542C65.9252 8.91867 66.6222 8.43133 67.4155 8.08C68.2088 7.72867 69.0702 7.553 69.9995 7.553C70.8722 7.553 71.6202 7.66633 72.2435 7.893C72.8782 8.11967 73.5128 8.49367 74.1475 9.015C74.2835 9.12833 74.3742 9.236 74.4195 9.338C74.4648 9.44 74.4875 9.56467 74.4875 9.712C74.4875 9.92733 74.4082 10.1087 74.2495 10.256C74.1022 10.4033 73.9152 10.4827 73.6885 10.494C73.4732 10.5053 73.2692 10.4317 73.0765 10.273C72.6572 9.91033 72.2208 9.63267 71.7675 9.44C71.3255 9.24733 70.7362 9.151 69.9995 9.151C69.3308 9.151 68.7018 9.287 68.1125 9.559C67.5232 9.831 67.0018 10.205 66.5485 10.681C66.1065 11.157 65.7608 11.7123 65.5115 12.347C65.2622 12.9703 65.1375 13.639 65.1375 14.353C65.1375 15.0783 65.2622 15.7583 65.5115 16.393C65.7608 17.0163 66.1065 17.566 66.5485 18.042C67.0018 18.518 67.5232 18.892 68.1125 19.164C68.7018 19.4247 69.3308 19.555 69.9995 19.555C70.4982 19.555 70.9742 19.4813 71.4275 19.334C71.8808 19.1867 72.3172 18.977 72.7365 18.705V15.679H70.3905C70.1412 15.679 69.9315 15.6053 69.7615 15.458C69.5915 15.3107 69.5065 15.1237 69.5065 14.897C69.5065 14.6703 69.5915 14.4833 69.7615 14.336C69.9315 14.1887 70.1412 14.115 70.3905 14.115H73.5695C73.8302 14.115 74.0398 14.2 74.1985 14.37C74.3572 14.5287 74.4365 14.7383 74.4365 14.999V19.062C74.4365 19.1753 74.4138 19.2887 74.3685 19.402C74.3345 19.504 74.2665 19.6003 74.1645 19.691C73.5638 20.1897 72.9122 20.5637 72.2095 20.813C71.5068 21.051 70.7702 21.17 69.9995 21.17ZM88.3653 21.17C87.64 21.17 86.9487 21.0567 86.2913 20.83C85.634 20.6033 85.0617 20.286 84.5743 19.878C84.087 19.47 83.73 18.9997 83.5033 18.467C83.39 18.229 83.39 18.008 83.5033 17.804C83.628 17.6 83.832 17.4697 84.1153 17.413C84.3193 17.3677 84.5177 17.4017 84.7103 17.515C84.9143 17.617 85.0673 17.7757 85.1693 17.991C85.3053 18.2743 85.5263 18.535 85.8323 18.773C86.1497 19.011 86.5293 19.2037 86.9713 19.351C87.4133 19.4983 87.878 19.572 88.3653 19.572C88.9093 19.572 89.408 19.487 89.8613 19.317C90.326 19.147 90.7 18.9033 90.9833 18.586C91.2667 18.2573 91.4083 17.855 91.4083 17.379C91.4083 16.7783 91.1703 16.24 90.6943 15.764C90.2297 15.288 89.459 14.9933 88.3823 14.88C86.977 14.744 85.872 14.3303 85.0673 13.639C84.2627 12.9477 83.8603 12.092 83.8603 11.072C83.8603 10.324 84.07 9.68933 84.4893 9.168C84.9087 8.64667 85.4753 8.25 86.1893 7.978C86.9147 7.706 87.7193 7.57 88.6033 7.57C89.6347 7.57 90.479 7.77967 91.1363 8.199C91.7937 8.61833 92.3377 9.17367 92.7683 9.865C92.927 10.1143 92.9893 10.3523 92.9553 10.579C92.9327 10.7943 92.825 10.9643 92.6323 11.089C92.417 11.225 92.1847 11.2533 91.9353 11.174C91.686 11.0947 91.499 10.9473 91.3743 10.732C91.091 10.2447 90.7227 9.865 90.2693 9.593C89.8273 9.321 89.255 9.17933 88.5523 9.168C87.7137 9.15667 87.011 9.31533 86.4443 9.644C85.8777 9.96133 85.5943 10.4543 85.5943 11.123C85.5943 11.463 85.6793 11.7917 85.8493 12.109C86.0307 12.415 86.3537 12.6813 86.8183 12.908C87.2943 13.1347 87.9743 13.2933 88.8583 13.384C90.207 13.52 91.2553 13.9337 92.0033 14.625C92.7627 15.305 93.1423 16.206 93.1423 17.328C93.1423 17.974 93.0063 18.535 92.7343 19.011C92.4737 19.487 92.1167 19.8893 91.6633 20.218C91.2213 20.5353 90.7113 20.7733 90.1333 20.932C89.5667 21.0907 88.9773 21.17 88.3653 21.17ZM102.211 21C101.894 21 101.65 20.864 101.48 20.592C101.31 20.32 101.293 20.031 101.429 19.725L106.206 8.318C106.376 7.92133 106.654 7.723 107.039 7.723C107.447 7.723 107.725 7.92133 107.872 8.318L112.666 19.759C112.791 20.0763 112.768 20.3653 112.598 20.626C112.44 20.8753 112.196 21 111.867 21C111.697 21 111.533 20.9547 111.374 20.864C111.227 20.762 111.119 20.626 111.051 20.456L110.099 18.076H103.996L103.027 20.456C102.948 20.6373 102.829 20.7733 102.67 20.864C102.523 20.9547 102.37 21 102.211 21ZM104.591 16.614H109.504L107.073 10.562L104.591 16.614ZM123.037 21C122.595 21 122.301 20.7677 122.153 20.303L118.736 8.947C118.623 8.573 118.629 8.27833 118.753 8.063C118.889 7.83633 119.105 7.723 119.399 7.723C119.592 7.723 119.768 7.77967 119.926 7.893C120.085 7.995 120.198 8.15933 120.266 8.386L123.054 18.076L125.621 8.488C125.667 8.318 125.769 8.17633 125.927 8.063C126.086 7.94967 126.267 7.893 126.471 7.893C126.653 7.893 126.823 7.944 126.981 8.046C127.151 8.13667 127.259 8.27833 127.304 8.471L129.905 18.144L132.727 8.301C132.841 7.91567 133.13 7.723 133.594 7.723C133.912 7.723 134.116 7.84767 134.206 8.097C134.297 8.335 134.297 8.61833 134.206 8.947L130.789 20.286C130.71 20.5013 130.591 20.677 130.432 20.813C130.285 20.9377 130.109 21 129.905 21C129.69 21 129.503 20.932 129.344 20.796C129.197 20.66 129.089 20.4957 129.021 20.303L126.488 10.511L123.921 20.286C123.842 20.5013 123.723 20.677 123.564 20.813C123.417 20.9377 123.241 21 123.037 21Z" fill="white"/>
<g clip-path="url(#clip1)">
<path d="M24.9642 13.6683L20.2 18.461L19.5363 16.7507C19.4408 16.504 19.2976 16.2845 19.1103 16.0961C18.3675 15.3488 17.1585 15.3488 16.4156 16.0961C15.6726 16.8436 15.6728 18.0596 16.4157 18.8068C16.603 18.9952 16.8219 19.1398 17.0659 19.2358L18.7649 19.9041L14.0019 24.6956L3.04012 13.6682L7.39622 9.28606C7.39224 9.26524 7.38354 9.24683 7.37288 9.23611C7.37125 9.23446 7.36942 9.23263 7.3675 9.23127C7.29162 9.23746 7.23129 9.242 7.14561 9.24287C6.49973 9.2334 5.9024 8.98008 5.45382 8.52881C4.5055 7.57483 4.50564 6.02231 5.45391 5.06838C6.40218 4.11444 7.94537 4.1144 8.89369 5.06838C9.34285 5.52023 9.59475 6.12093 9.60316 6.76039L9.59091 6.96471C9.59615 6.978 9.60153 6.98611 9.60494 6.98954C9.61728 7.00196 9.63476 7.00989 9.65412 7.01361L14.0016 2.64016L18.354 7.0186C18.3727 7.01304 18.3932 7.0028 18.4084 6.98758C18.4067 6.93347 18.401 6.86302 18.4007 6.76939C18.4104 6.11998 18.6625 5.51879 19.1101 5.0685C20.0581 4.11485 21.6017 4.11495 22.5498 5.06865C23.4983 6.02288 23.498 7.57525 22.55 8.52894C22.1018 8.97982 21.5042 9.23343 20.8668 9.24256L20.668 9.23367C20.6477 9.2486 20.6296 9.27628 20.6218 9.3L24.9642 13.6683ZM20.4984 17.0292L23.8393 13.6683L19.9884 9.79446C19.9214 9.72706 19.8731 9.64261 19.85 9.55143C19.727 9.08616 20.0494 8.54082 20.5333 8.43859L20.6365 8.43091L20.8565 8.44274C21.2847 8.43646 21.6868 8.2662 21.9877 7.96346C22.626 7.3214 22.6257 6.27682 21.9877 5.63505C21.3495 4.99299 20.3106 4.99269 19.6726 5.63451C19.3718 5.93706 19.2024 6.34175 19.1961 6.77355C19.1964 6.82413 19.201 6.86805 19.2054 6.91163C19.2145 6.99265 19.2123 7.08648 19.1994 7.15311C19.0454 7.69757 18.5474 7.91282 18.1023 7.79435C18.0098 7.76918 17.9282 7.72192 17.8623 7.65559L14.0021 3.77229L10.1515 7.64586C10.0857 7.712 10.0033 7.75984 9.91395 7.78424C9.60062 7.8685 9.26706 7.7808 9.04325 7.55565C8.92352 7.4352 8.84072 7.27673 8.80378 7.09675L8.79552 6.93239L8.80786 6.79039C8.79691 6.33014 8.62843 5.93385 8.33084 5.63449C7.69245 4.99228 6.65437 4.99228 6.01598 5.63449C5.37759 6.27669 5.3775 7.32108 6.01589 7.96328C6.31712 8.26632 6.71893 8.43629 7.14734 8.44286C7.19734 8.44233 7.23701 8.43856 7.27534 8.43402C7.36155 8.4246 7.45837 8.42702 7.52455 8.43997C7.70461 8.49152 7.83285 8.56776 7.93471 8.67024C8.15771 8.89457 8.24522 9.22871 8.16261 9.54238C8.1385 9.63466 8.09066 9.71834 8.02434 9.78506L4.16466 13.6678L14.0016 23.5636L17.3422 20.2031L16.776 19.9803C16.4292 19.8436 16.1187 19.6392 15.8534 19.3724C14.8005 18.3132 14.8002 16.5896 15.8534 15.5301C16.9065 14.4707 18.62 14.4708 19.6729 15.5301C19.9385 15.7972 20.1418 16.1094 20.2773 16.4591L20.4984 17.0292Z" fill="white"/>
</g>
</g>
<defs>
<clipPath id="clip0">
<rect width="146" height="28" fill="white"/>
</clipPath>
<clipPath id="clip1">
<rect width="19.9002" height="19.9002" transform="matrix(0.704996 -0.709211 0.704996 0.709211 -0.0284424 10.5835)" fill="white"/>
</clipPath>
</defs>
</svg>
