<svg width="80" height="80" viewBox="0 0 80 80" fill="none" xmlns="http://www.w3.org/2000/svg">
<path d="M36.7147 36.4189C38.4981 36.4189 39.9437 34.9732 39.9437 33.1899C39.9437 31.4066 38.4981 29.9609 36.7147 29.9609C34.9314 29.9609 33.4857 31.4066 33.4857 33.1899C33.4857 34.9732 34.9314 36.4189 36.7147 36.4189Z" fill="white"/>
<path d="M63.2195 45.0744C61.6947 43.6393 59.7662 42.6975 57.6584 42.4284V26.0143C57.6584 24.2653 56.9408 22.6956 55.8197 21.5296C54.6536 20.3635 53.084 19.6908 51.3349 19.6908H25.3235C23.5744 19.6908 22.0048 20.4084 20.8387 21.5296C19.6727 22.6956 19 24.2653 19 26.0143V46.6889V48.6174V52.7882C19 54.5372 19.7176 56.1069 20.8387 57.2729C22.0048 58.4389 23.5744 59.1116 25.3235 59.1116H50.4828C52.1422 60.4571 54.2052 61.3092 56.4924 61.3092C59.1384 61.3092 61.5153 60.2328 63.2195 58.5286C64.9237 56.8244 66 54.4475 66 51.8015C66 49.1555 64.9237 46.7786 63.2195 45.0744ZM21.3769 26.0143C21.3769 24.938 21.8254 23.9513 22.5429 23.2786C23.2605 22.5611 24.2471 22.1126 25.3235 22.1126H51.3349C52.4113 22.1126 53.3979 22.5611 54.1155 23.2786C54.833 23.9962 55.2815 24.9828 55.2815 26.0592V40.0515L48.6441 33.4141C48.1956 32.9656 47.4332 32.9208 46.9399 33.4141L36.9389 43.4599L30.167 36.6431C29.7185 36.1947 28.9561 36.1498 28.4628 36.6431L21.3769 43.8187V26.0143ZM25.2786 56.8244V56.7347C24.2023 56.7347 23.2156 56.2863 22.4981 55.5687C21.8254 54.8511 21.3769 53.8645 21.3769 52.7882V48.6174V47.2271L29.3149 39.2443L36.0868 46.0162C36.5353 46.4647 37.2977 46.4647 37.791 46.0162L47.792 35.9704L54.3397 42.563C54.2052 42.6078 54.0706 42.6527 53.9361 42.6975C53.7567 42.7424 53.5773 42.7872 53.3531 42.8769C53.1737 42.9218 52.9943 43.0115 52.8149 43.0563C52.6803 43.1011 52.5906 43.146 52.4561 43.2357C52.2767 43.3254 52.1422 43.3702 52.0076 43.4599C51.7834 43.5945 51.5592 43.729 51.3349 43.8636C51.2004 43.9532 51.1107 43.9981 50.9761 44.0878C50.8865 44.1326 50.8416 44.1775 50.7519 44.2223C50.3483 44.4914 49.9895 44.8053 49.6756 45.1641C47.9714 46.8683 46.895 49.2452 46.895 51.8912C46.895 52.5639 46.9847 53.1918 47.1193 53.8645C47.1641 54.0439 47.209 54.1784 47.2538 54.3578C47.3884 54.8063 47.5229 55.2548 47.7023 55.7032V55.7481C47.8817 56.1069 48.0611 56.5105 48.2853 56.8244H25.2786ZM61.4704 56.8244C60.1698 58.125 58.4208 58.8874 56.4475 58.8874C54.5639 58.8874 52.8149 58.125 51.5592 56.9141C51.3798 56.7347 51.2004 56.5105 51.021 56.3311C50.8864 56.1966 50.7519 56.0172 50.6174 55.8826C50.438 55.6584 50.3034 55.3893 50.1689 55.1202C50.0792 54.9408 49.9895 54.8063 49.8998 54.6269C49.8101 54.4027 49.7204 54.1336 49.6756 53.8645C49.6307 53.6851 49.541 53.4609 49.4962 53.2815C49.4065 52.833 49.3616 52.3397 49.3616 51.8464C49.3616 49.8731 50.1689 48.124 51.4246 46.8235C52.6803 45.5229 54.4742 44.7605 56.4475 44.7605C58.4208 44.7605 60.1698 45.5677 61.4704 46.8235C62.771 48.124 63.5334 49.8731 63.5334 51.8464C63.5334 53.7748 62.7261 55.5239 61.4704 56.8244Z" fill="white"/>
<path d="M57.2996 47.0029C57.2099 46.9132 57.0754 46.8235 56.896 46.7338C56.7614 46.6889 56.6269 46.6441 56.4924 46.6441C56.4475 46.6441 56.4475 46.6441 56.4475 46.6441C56.4027 46.6441 56.4027 46.6441 56.4027 46.6441C56.2681 46.6441 56.1336 46.6889 55.999 46.7338C55.8645 46.7786 55.7299 46.8683 55.5954 47.0029L52.8149 49.7834C52.3664 50.2319 52.3664 50.9943 52.8149 51.4876C53.2633 51.9361 54.0257 51.9361 54.5191 51.4876L55.2366 50.77V55.7032C55.2366 56.376 55.7748 56.9141 56.4475 56.9141C57.1202 56.9141 57.6584 56.376 57.6584 55.7032V50.77L58.3759 51.4876C58.8244 51.9361 59.5868 51.9361 60.0801 51.4876C60.5286 51.0391 60.5286 50.2767 60.0801 49.7834L57.2996 47.0029Z" fill="white"/>
<circle cx="40" cy="40" r="39" stroke="white" stroke-width="2"/>
</svg>
