<svg width="189" height="189" viewBox="0 0 189 189" fill="none" xmlns="http://www.w3.org/2000/svg">
<g clip-path="url(#clip0)">
<circle cx="94.5" cy="94.5" r="93" stroke="white" stroke-width="3"/>
<path d="M94.7887 34C61.2156 34 34 61.2156 34 94.7887C34 109.418 39.1707 122.841 47.7811 133.33C49.1095 122.693 59.7331 113.697 74.6299 109.437C80.0722 114.508 87.1021 117.584 94.7883 117.584C102.294 117.584 109.186 114.663 114.573 109.805C129.598 114.437 139.994 123.959 140.336 135.026C149.812 124.305 155.577 110.224 155.577 94.7887C155.577 61.2156 128.361 34 94.7887 34ZM94.7887 110.386C90.9081 110.386 87.2515 109.319 84.0047 107.473C76.1803 103.021 70.793 93.9095 70.793 83.3905C70.793 68.5054 81.5571 56.3949 94.7887 56.3949C108.021 56.3949 118.784 68.5054 118.784 83.3905C118.784 94.071 113.229 103.294 105.209 107.669C102.05 109.392 98.5253 110.386 94.7887 110.386Z" fill="white"/>
</g>
<defs>
<clipPath id="clip0">
<rect width="189" height="189" fill="white"/>
</clipPath>
</defs>
</svg>
