<svg width="30" height="30" viewBox="0 0 30 30" fill="none" xmlns="http://www.w3.org/2000/svg">
<path d="M21.5362 0.682159C18.9824 0.682159 16.5917 1.83845 15 3.77579C13.4083 1.83838 11.0177 0.682159 8.46382 0.682159C3.79688 0.682159 0 4.47897 0 9.14598C0 12.8004 2.17912 17.0274 6.4767 21.7095C9.78402 25.3126 13.3818 28.1024 14.4057 28.8716L14.9998 29.3179L15.5939 28.8717C16.6178 28.1024 20.2157 25.3127 23.5231 21.7096C27.8208 17.0275 30 12.8005 30 9.14598C30 4.47897 26.2031 0.682159 21.5362 0.682159ZM22.0659 20.3719C19.3455 23.3355 16.4188 25.7312 14.9998 26.8354C13.5809 25.7312 10.6543 23.3355 7.93391 20.3719C4.03754 16.1269 1.97802 12.2451 1.97802 9.14598C1.97802 5.56972 4.88756 2.66018 8.46382 2.66018C10.8173 2.66018 12.9903 3.94286 14.135 6.00772L15 7.56812L15.865 6.00772C17.0096 3.94293 19.1827 2.66018 21.5362 2.66018C25.1124 2.66018 28.022 5.56965 28.022 9.14598C28.022 12.2452 25.9624 16.1271 22.0659 20.3719Z" fill="#FB28C0"/>
<path d="M18.7236 12.8842C18.7236 13.7769 18.5178 14.656 18.1241 15.444C17.7305 16.2319 17.1612 16.9047 16.4663 17.4029L13.6148 12.8842H18.7236Z" fill="#FB28C0"/>
<path d="M17.375 9.74632C17.375 10.0567 17.258 10.3622 17.0342 10.6361C16.8104 10.91 16.4867 11.1439 16.0917 11.3171L14.4705 9.74632H17.375Z" fill="#FB28C0"/>
<path d="M14.3011 26.2475C11.4535 23.9545 8.64507 21.2436 6.67832 18.8893C3.95725 15.6321 2.34987 12.547 2.05739 10.0202C1.98272 9.3751 2.01755 8.39077 2.13416 7.85026C2.52122 6.05629 3.62583 4.5155 5.19809 3.57649C5.79835 3.21799 6.59153 2.92616 7.34329 2.78724C7.89573 2.68515 8.9667 2.68379 9.54394 2.78445C11.1754 3.06896 12.6593 3.98052 13.6395 5.30041C13.7984 5.51435 14.1598 6.10595 14.4426 6.61507C14.7253 7.12418 14.9765 7.54073 15.0008 7.54073C15.025 7.54073 15.2762 7.12418 15.559 6.61507C16.1541 5.54349 16.4948 5.06461 17.0474 4.52242C18.9403 2.66527 21.7788 2.17993 24.2589 3.28938C25.153 3.68936 26.2662 4.62872 26.8425 5.46954C27.2434 6.05428 27.6119 6.86387 27.7976 7.5676C27.9497 8.14395 27.9591 8.23393 27.961 9.13849C27.9629 9.98622 27.947 10.1735 27.8248 10.7463C27.4387 12.5563 26.6337 14.2883 25.1732 16.4516C23.4319 19.0308 20.5939 22.0781 17.2817 24.9252C16.2919 25.776 15.0565 26.7735 14.9957 26.771C14.97 26.77 14.6574 26.5344 14.3011 26.2475Z" fill="#FB28C0"/>
<path d="M14.3006 26.2487C10.7091 23.3623 7.35528 19.9629 5.28746 17.1131C2.41693 13.157 1.43413 9.79963 2.34893 7.07451C2.66665 6.12801 3.34368 5.08532 4.0747 4.41663C5.32243 3.27529 6.78052 2.70711 8.46174 2.70711C10.2113 2.70711 11.7753 3.34994 13.0046 4.57429C13.5604 5.12785 13.8052 5.47264 14.4042 6.5452C14.6671 7.01588 14.9109 7.43133 14.9459 7.46842C15.0309 7.55835 15.0251 7.56657 15.5954 6.5452C16.3588 5.1778 16.9417 4.48465 17.8684 3.842C18.9596 3.08523 20.1829 2.70711 21.5398 2.70711C23.6791 2.70711 25.5688 3.68326 26.811 5.43008C27.5244 6.4332 27.9199 7.59304 27.9783 8.85324C28.1576 12.7205 24.9295 17.9339 18.9412 23.4484C17.4895 24.7852 15.1253 26.7759 14.9946 26.7714C14.9695 26.7705 14.6571 26.5353 14.3006 26.2487Z" fill="#FB28C0"/>
<path d="M14.3265 26.272C12.1386 24.5165 9.61987 22.1731 7.92431 20.3156C3.11898 15.0513 1.19259 10.523 2.32303 7.14883C3.08553 4.87293 5.02369 3.1876 7.34385 2.783C7.92095 2.68236 9.03873 2.68517 9.58416 2.78864C10.9009 3.03843 12.0536 3.63454 12.9749 4.54214C13.5452 5.10404 13.7463 5.38452 14.3973 6.52688C14.7007 7.05912 14.9722 7.4944 15.0008 7.49418C15.0293 7.49398 15.3001 7.0594 15.6026 6.52852C15.9051 5.99764 16.2457 5.43995 16.3596 5.28921C17.1963 4.18113 18.3583 3.36341 19.6598 2.96671C20.8447 2.60557 22.3515 2.61689 23.5118 2.99565C25.1388 3.52677 26.4845 4.67011 27.2649 6.18436C27.7238 7.07501 27.932 7.85365 27.9783 8.85324C28.1232 11.9802 26.1006 15.9113 22.0807 20.3156C21.1981 21.2826 19.2508 23.195 18.1905 24.1362C16.7693 25.3977 15.1 26.774 14.9933 26.7722C14.9689 26.7718 14.6688 26.5467 14.3265 26.272Z" fill="#FB28C0"/>
<path d="M14.1943 26.1667C11.1615 23.7136 8.16581 20.7728 6.22658 18.3447C3.97742 15.5285 2.6221 12.9859 2.16098 10.7174C2.00975 9.97343 1.97397 8.7907 2.08268 8.12932C2.43576 5.98125 3.89388 4.09611 5.87399 3.22771C6.69148 2.86918 7.24047 2.75127 8.23226 2.72118C8.89942 2.70094 9.19093 2.71435 9.55484 2.782C10.7034 2.99552 11.5364 3.36943 12.4669 4.08913C13.2488 4.69382 13.6818 5.2474 14.4838 6.6675C14.7357 7.1137 14.9684 7.47877 15.0008 7.47877C15.0331 7.47877 15.2658 7.1137 15.5178 6.6675C16.1823 5.49077 16.4398 5.12596 16.9953 4.57428C17.9596 3.61662 19.0747 3.03353 20.4135 2.78696C20.9679 2.68485 22.0876 2.68357 22.6656 2.78438C25.7168 3.31646 27.991 6.02955 27.9929 9.13984C27.9948 12.2113 26.0043 15.9942 22.1533 20.2378C21.3246 21.1509 19.2521 23.1984 18.2943 24.0502C16.935 25.259 15.1034 26.7729 15.0002 26.7729C14.9692 26.7729 14.6066 26.5001 14.1943 26.1667Z" fill="#FB28C0"/>
<path d="M14.1953 26.1682C11.0182 23.6076 7.88529 20.4977 5.88756 17.9214C3.8184 15.2529 2.53807 12.7455 2.13115 10.5648C2.01201 9.92634 1.99748 8.40512 2.10589 7.91964C2.70492 5.237 4.73543 3.23788 7.31875 2.78739C7.90136 2.68579 9.01774 2.68363 9.58754 2.783C10.7834 2.99154 11.9188 3.55871 12.8554 4.41544C13.3692 4.88546 13.7625 5.41088 14.2976 6.34208C14.9384 7.45731 14.9716 7.50476 15.0535 7.42019C15.0913 7.3811 15.3369 6.97568 15.5993 6.51926C16.2257 5.42939 16.4589 5.10395 16.9935 4.57352C17.9491 3.62535 19.1168 3.01255 20.4059 2.78274C20.9527 2.68527 22.1109 2.68763 22.683 2.78739C23.9849 3.01443 25.1312 3.62151 26.1002 4.59718C26.8552 5.35741 27.342 6.14406 27.6781 7.14747C28.7593 10.3746 27.0389 14.6652 22.6477 19.6932C21.4021 21.1195 19.0576 23.4102 17.255 24.9623C16.3121 25.7741 15.068 26.7729 15.0002 26.7729C14.9699 26.7729 14.608 26.5008 14.1953 26.1682Z" fill="#FB28C0"/>
<path d="M14.3509 26.2974C11.2395 23.8101 8.0351 20.6499 5.98637 18.0482C3.9076 15.4083 2.57376 12.8358 2.12985 10.6103C2.01331 10.026 1.99909 8.39231 2.10589 7.91964C2.71405 5.22807 4.7349 3.23798 7.31875 2.78739C7.90136 2.68579 9.01774 2.68363 9.58754 2.783C10.7807 2.99107 11.919 3.55892 12.8499 4.41046C13.3862 4.90105 13.7279 5.36326 14.3894 6.49333C14.6983 7.02107 14.9738 7.45285 15.0016 7.45285C15.0294 7.45285 15.2472 7.11443 15.4856 6.70079C16.1592 5.5319 16.4611 5.10656 16.9955 4.57303C18.2497 3.32113 19.7438 2.70711 21.536 2.70711C23.0162 2.70711 24.2599 3.11587 25.4132 3.98148C26.6095 4.87927 27.4142 6.09629 27.8258 7.62997C27.9471 8.08181 27.9592 8.21927 27.961 9.13849C27.9633 10.2474 27.8973 10.6924 27.5717 11.7577C26.9189 13.8932 25.4082 16.4235 23.252 18.993C21.5111 21.0675 18.6383 23.8564 16.116 25.9205C15.2772 26.6069 15.0587 26.7729 14.9943 26.7729C14.9676 26.7729 14.678 26.559 14.3509 26.2974Z" fill="#FB28C0"/>
<path d="M14.251 26.8135C11.227 24.4652 7.87937 21.3363 5.77029 18.887C3.06615 15.7466 1.37739 12.7888 0.790874 10.1658C0.67944 9.66745 0.66032 9.41647 0.661186 8.46347C0.662116 7.43943 0.674727 7.30073 0.811521 6.80995C1.19414 5.43722 1.8651 4.31931 2.84675 3.41897C4.24963 2.1323 5.88318 1.50515 7.83173 1.50515C9.81472 1.50515 11.4787 2.15919 12.8692 3.48511C13.4829 4.07026 13.7937 4.48416 14.4591 5.60229C14.7221 6.04422 14.9815 6.46241 15.0356 6.5316L15.1338 6.6574L15.2375 6.50471C15.2944 6.42073 15.5619 5.98455 15.8319 5.53543C16.4995 4.42454 16.7618 4.07767 17.3822 3.48511C18.7722 2.15734 20.4313 1.50515 22.4188 1.50515C23.9581 1.50515 25.1562 1.84934 26.4164 2.65355C27.9119 3.60802 28.9464 5.03114 29.4376 6.80995C29.5694 7.28749 29.5861 7.45796 29.591 8.37963C29.5952 9.17002 29.5711 9.54526 29.4885 9.9725C28.9189 12.9197 26.8457 16.3641 23.3944 20.0972C22.4313 21.139 19.8797 23.5854 18.6852 24.6123C17.1755 25.91 15.2444 27.4382 15.114 27.4382C15.0818 27.4382 14.6935 27.157 14.251 26.8135Z" fill="#FB28C0"/>
</svg>
