<svg width="80" height="80" viewBox="0 0 80 80" fill="none" xmlns="http://www.w3.org/2000/svg">
<path d="M62.1637 50.9844H60.4615L62.9396 49.8288C63.8585 49.4003 64.2561 48.308 63.8276 47.3891L51.7236 21.4317C51.2955 20.5134 50.2027 20.1151 49.2839 20.5437L41.9122 23.9812V16.8359C41.9122 15.8219 41.0902 15 40.0763 15H29.4561C28.4421 15 27.6202 15.8219 27.6202 16.8359V22.3438H18.8359C17.8219 22.3438 17 23.1657 17 24.1797V60.1641C17 61.1781 17.8219 62 18.8359 62H62.1637C63.1777 62 63.9996 61.1781 63.9996 60.1641V52.8203C63.9995 51.8063 63.1776 50.9844 62.1637 50.9844ZM49.1718 24.6475L59.7239 47.2769L53.0683 50.3805L42.516 27.7511L49.1718 24.6475ZM41.9122 35.1446L49.2985 50.9844H41.9123V35.1446H41.9122ZM31.292 18.6719H38.2403V50.9844H31.292C31.292 49.7384 31.292 20.2435 31.292 18.6719ZM20.6719 26.0156H27.6203V50.9844H20.6719V26.0156ZM60.3278 58.3281H20.6719V54.6562H60.3278V58.3281Z" fill="white"/>
<circle cx="40" cy="40" r="39" stroke="white" stroke-width="2"/>
<defs>
<clipPath id="clip0">
<rect x="17" y="15" width="47" height="47" fill="white"/>
</clipPath>
</defs>
</svg>
