<svg width="80" height="80" viewBox="0 0 80 80" fill="none" xmlns="http://www.w3.org/2000/svg">
<path d="M39.4953 31.3726C34.4616 31.3726 30.3679 35.4663 30.3679 40.5C30.3679 45.5337 34.4616 49.6274 39.4953 49.6274C44.529 49.6227 48.6227 45.529 48.6227 40.5C48.6227 35.471 44.529 31.3726 39.4953 31.3726ZM39.4953 47.7333C35.505 47.7333 32.262 44.4856 32.262 40.5C32.262 36.5097 35.505 33.2667 39.4953 33.2667C43.4856 33.2667 46.7286 36.5097 46.7286 40.5C46.7286 44.4856 43.4856 47.7333 39.4953 47.7333Z" fill="white"/>
<path d="M62.3044 37.3181C62.248 36.8951 61.9143 36.5661 61.4913 36.5097L56.1427 35.8094C55.7761 34.5028 55.2544 33.2432 54.587 32.0541L57.877 27.7724C58.1355 27.434 58.1402 26.964 57.8817 26.6256C56.5939 24.9242 55.0805 23.4108 53.3838 22.1277C53.0454 21.8692 52.5754 21.8692 52.237 22.1324L47.9553 25.4224C46.7662 24.755 45.5066 24.2286 44.1953 23.862L43.495 18.504C43.4386 18.081 43.1096 17.7473 42.6866 17.6909C40.5387 17.3948 38.4707 17.3948 36.3275 17.6909C35.9045 17.7473 35.5755 18.081 35.5191 18.504L34.8188 23.8526C33.5075 24.2192 32.2432 24.7456 31.0541 25.413L26.7724 22.123C26.434 21.8645 25.964 21.8598 25.6256 22.1183C24.8548 22.7011 24.1028 23.3497 23.3884 24.0453L23.0406 24.3931C22.3544 25.0934 21.7105 25.8407 21.1277 26.6115C20.8692 26.9499 20.8739 27.4199 21.1324 27.7583L24.4224 32.04C23.7503 33.2338 23.2286 34.4981 22.8573 35.8094L17.4993 36.5097C17.0763 36.5661 16.7426 36.8951 16.6862 37.3181C16.5593 38.2487 16.4841 39.2075 16.47 40.1757V40.8337C16.4841 41.7878 16.5546 42.7419 16.6862 43.6772C16.7426 44.1002 17.0763 44.4292 17.4993 44.4856L22.8479 45.1859C23.2192 46.5019 23.7409 47.7615 24.413 48.9553L21.123 53.237C20.8645 53.5754 20.8598 54.0454 21.1183 54.3838C21.7011 55.1546 22.345 55.9019 23.0406 56.6069L23.3884 56.9594C24.0934 57.6503 24.8454 58.2989 25.6162 58.8817C25.9546 59.1402 26.4246 59.1355 26.763 58.877L31.0447 55.587C32.2385 56.2544 33.4981 56.7808 34.8094 57.1474L35.5144 62.496C35.5708 62.919 35.8998 63.2527 36.3228 63.3091C37.3944 63.4548 38.4613 63.53 39.4953 63.53C40.534 63.53 41.6103 63.4548 42.6866 63.3044C43.1096 63.248 43.4386 62.9096 43.495 62.4913L44.1953 57.138C45.5066 56.7667 46.7662 56.245 47.9553 55.5776L52.237 58.8676C52.5754 59.1261 53.0454 59.1308 53.3838 58.8723C55.0852 57.5845 56.5986 56.0711 57.8817 54.3744C58.1402 54.036 58.1355 53.566 57.877 53.2276L54.587 48.9459C55.2544 47.7568 55.7761 46.4972 56.1427 45.1906L61.4913 44.4903C61.9143 44.4339 62.248 44.1049 62.3044 43.6819C62.4501 42.6103 62.53 41.5387 62.53 40.5C62.53 39.466 62.4548 38.3897 62.3044 37.3181ZM60.5184 42.7043L55.2638 43.3905C54.8737 43.4422 54.5588 43.7289 54.4648 44.1096C54.0888 45.6653 53.4778 47.1505 52.6365 48.5229C52.4297 48.8566 52.4532 49.2843 52.6929 49.5945L55.9265 53.801C54.9959 54.9478 53.9525 55.9912 52.8057 56.9218L48.6039 53.6929C48.2937 53.4532 47.866 53.4297 47.5323 53.6365C46.1599 54.4778 44.6747 55.0935 43.119 55.4695C42.7383 55.5635 42.4516 55.8784 42.4046 56.2685L41.7184 61.5231C40.2238 61.6829 38.795 61.6829 37.3051 61.5231L36.6189 56.2685C36.5672 55.8784 36.2805 55.5635 35.8998 55.4695C34.3394 55.0935 32.8542 54.4778 31.4771 53.6365C31.1434 53.4344 30.7157 53.4532 30.4055 53.6929L26.199 56.9265C25.6914 56.5129 25.1932 56.0711 24.7279 55.6152L24.3942 55.2815C23.9336 54.8115 23.4918 54.318 23.0829 53.8104L26.3118 49.6086C26.5515 49.2984 26.575 48.8707 26.3682 48.537C25.5269 47.1646 24.9065 45.6747 24.5305 44.1143C24.4365 43.7336 24.1216 43.4469 23.7315 43.3952L18.4769 42.7043C18.4111 42.0792 18.3735 41.4447 18.3641 40.8196V40.1898C18.3735 39.5553 18.4111 38.9208 18.4769 38.291L23.7315 37.6048C24.1216 37.5531 24.4365 37.2664 24.5305 36.8857C24.9065 35.3253 25.5222 33.8354 26.3682 32.463C26.575 32.1293 26.5515 31.7016 26.3118 31.3914L23.0829 27.1896C23.4965 26.682 23.9336 26.1932 24.3895 25.7279L24.7232 25.3942C25.1979 24.9289 25.6961 24.4871 26.2037 24.0735L30.4102 27.3071C30.7204 27.5468 31.1481 27.5703 31.4818 27.3635C32.8542 26.5222 34.3441 25.9065 35.9045 25.5305C36.2852 25.4412 36.5719 25.1216 36.6236 24.7315L37.3098 19.4769C38.7997 19.3218 40.2332 19.3218 41.7231 19.4769L42.4093 24.7315C42.461 25.1216 42.7477 25.4365 43.1237 25.5305C44.6841 25.9065 46.1646 26.5222 47.537 27.3635C47.8707 27.5703 48.2984 27.5468 48.6086 27.3071L52.8104 24.0782C53.9572 25.0088 55.0006 26.0569 55.9312 27.199L52.6976 31.4055C52.4579 31.7157 52.4344 32.1434 52.6412 32.4771C53.4778 33.8495 54.0935 35.33 54.4695 36.8904C54.5635 37.2711 54.8784 37.5578 55.2685 37.6095L60.5137 38.291C60.5936 39.0383 60.6312 39.7762 60.6312 40.5C60.6312 41.2191 60.5983 41.9617 60.5184 42.7043Z" fill="white"/>
<circle cx="40" cy="40" r="39" stroke="white" stroke-width="2"/>
</svg>
