<svg width="150" height="150" viewBox="0 0 150 150" fill="none" xmlns="http://www.w3.org/2000/svg">
<path d="M56.5368 61.9752C62.2283 61.9752 66.8421 57.3613 66.8421 51.6699C66.8421 45.9784 62.2283 41.3645 56.5368 41.3645C50.8453 41.3645 46.2314 45.9784 46.2314 51.6699C46.2314 57.3613 50.8453 61.9752 56.5368 61.9752Z" fill="white"/>
<path d="M141.126 89.5992C136.26 85.0191 130.105 82.0134 123.378 81.1546V28.7691C123.378 23.187 121.088 18.1775 117.51 14.4561C113.788 10.7347 108.779 8.58779 103.197 8.58779H20.1813C14.5992 8.58779 9.58969 10.8779 5.86832 14.4561C2.14695 18.1775 0 23.187 0 28.7691V94.7519V100.907V114.218C0 119.8 2.29008 124.809 5.86832 128.531C9.58969 132.252 14.5992 134.399 20.1813 134.399H100.477C105.773 138.693 112.357 141.412 119.656 141.412C128.101 141.412 135.687 137.977 141.126 132.538C146.565 127.099 150 119.513 150 111.069C150 102.624 146.565 95.0382 141.126 89.5992ZM7.58588 28.7691C7.58588 25.334 9.01718 22.1851 11.3073 20.0382C13.5973 17.7481 16.7462 16.3168 20.1813 16.3168H103.197C106.632 16.3168 109.781 17.7481 112.071 20.0382C114.361 22.3282 115.792 25.4771 115.792 28.9122V73.5687L94.6088 52.3855C93.1775 50.9542 90.7443 50.8111 89.1698 52.3855L57.2519 84.4466L35.6393 62.6908C34.208 61.2596 31.7748 61.1164 30.2004 62.6908L7.58588 85.5916V28.7691ZM20.0382 127.099V126.813C16.6031 126.813 13.4542 125.382 11.1641 123.092C9.01718 120.802 7.58588 117.653 7.58588 114.218V100.907V96.4695L32.9198 70.9924L54.5324 92.605C55.9637 94.0363 58.3969 94.0363 59.9714 92.605L91.8893 60.5439L112.786 81.584C112.357 81.7271 111.927 81.8702 111.498 82.0134C110.926 82.1565 110.353 82.2996 109.637 82.5859C109.065 82.729 108.492 83.0153 107.92 83.1584C107.49 83.3015 107.204 83.4447 106.775 83.7309C106.202 84.0172 105.773 84.1603 105.344 84.4466C104.628 84.876 103.912 85.3054 103.197 85.7347C102.767 86.021 102.481 86.1641 102.052 86.4504C101.765 86.5935 101.622 86.7367 101.336 86.8798C100.048 87.7386 98.9027 88.7405 97.9008 89.8855C92.4618 95.3244 89.0267 102.91 89.0267 111.355C89.0267 113.502 89.313 115.506 89.7424 117.653C89.8855 118.225 90.0286 118.655 90.1718 119.227C90.6011 120.658 91.0305 122.09 91.6031 123.521V123.664C92.1756 124.809 92.7481 126.097 93.4637 127.099H20.0382ZM135.544 127.099C131.393 131.25 125.811 133.683 119.513 133.683C113.502 133.683 107.92 131.25 103.912 127.386C103.34 126.813 102.767 126.097 102.195 125.525C101.765 125.095 101.336 124.523 100.906 124.094C100.334 123.378 99.9046 122.519 99.4752 121.66C99.1889 121.088 98.9027 120.658 98.6164 120.086C98.3302 119.37 98.0439 118.511 97.9008 117.653C97.7576 117.08 97.4714 116.365 97.3282 115.792C97.042 114.361 96.8988 112.786 96.8988 111.212C96.8988 104.914 99.4752 99.3321 103.483 95.1813C107.49 91.0305 113.216 88.5973 119.513 88.5973C125.811 88.5973 131.393 91.1737 135.544 95.1813C139.695 99.3321 142.128 104.914 142.128 111.212C142.128 117.366 139.552 122.948 135.544 127.099Z" fill="white"/>
<path d="M122.233 95.7538C121.946 95.4675 121.517 95.1813 120.944 94.895C120.515 94.7519 120.086 94.6088 119.656 94.6088C119.513 94.6088 119.513 94.6088 119.513 94.6088C119.37 94.6088 119.37 94.6088 119.37 94.6088C118.941 94.6088 118.511 94.7519 118.082 94.895C117.652 95.0382 117.223 95.3244 116.794 95.7538L107.92 104.628C106.488 106.059 106.488 108.492 107.92 110.067C109.351 111.498 111.784 111.498 113.359 110.067L115.649 107.777V123.521C115.649 125.668 117.366 127.385 119.513 127.385C121.66 127.385 123.378 125.668 123.378 123.521V107.777L125.668 110.067C127.099 111.498 129.532 111.498 131.107 110.067C132.538 108.635 132.538 106.202 131.107 104.628L122.233 95.7538Z" fill="white"/>
</svg>
